<mxfile host="app.diagrams.net" agent="Mozilla/5.0 (Windows NT 10.0; Win64; x64) AppleWebKit/537.36 (KHTML, like Gecko) Chrome/136.0.0.0 Safari/537.36" version="27.1.1" pages="2">
  <diagram name="第 1 页" id="FA2f_4tf3X4YctB5O3FO">
    <mxGraphModel dx="712" dy="304" grid="0" gridSize="10" guides="1" tooltips="1" connect="1" arrows="1" fold="1" page="1" pageScale="1" pageWidth="827" pageHeight="1169" math="0" shadow="0">
      <root>
        <mxCell id="0" />
        <mxCell id="1" parent="0" />
        <mxCell id="tDKQRB13UwWeRB4u-6H--71" value="choose" style="text;html=1;align=center;verticalAlign=middle;resizable=0;points=[];autosize=1;strokeColor=none;fillColor=none;fontSize=10;" parent="1" vertex="1">
          <mxGeometry x="344" y="425" width="60" height="30" as="geometry" />
        </mxCell>
        <mxCell id="tDKQRB13UwWeRB4u-6H--99" value="filter" style="text;html=1;align=center;verticalAlign=middle;resizable=0;points=[];autosize=1;strokeColor=none;fillColor=none;" parent="1" vertex="1">
          <mxGeometry x="231" y="987" width="50" height="30" as="geometry" />
        </mxCell>
        <mxCell id="tDKQRB13UwWeRB4u-6H--27" value="draw" style="text;html=1;align=center;verticalAlign=middle;resizable=0;points=[];autosize=1;strokeColor=none;fillColor=none;fontSize=10;" parent="1" vertex="1">
          <mxGeometry x="307.57" y="508" width="40" height="24" as="geometry" />
        </mxCell>
        <mxCell id="tDKQRB13UwWeRB4u-6H--21" value="pull" style="text;html=1;align=center;verticalAlign=middle;resizable=0;points=[];autosize=1;strokeColor=none;fillColor=none;fontSize=10;" parent="1" vertex="1">
          <mxGeometry x="194.57" y="501" width="40" height="30" as="geometry" />
        </mxCell>
        <mxCell id="tDKQRB13UwWeRB4u-6H--18" value="APP" style="text;html=1;align=center;verticalAlign=middle;resizable=0;points=[];autosize=1;strokeColor=none;fillColor=none;fontSize=10;" parent="1" vertex="1">
          <mxGeometry x="147.82" y="551" width="38" height="24" as="geometry" />
        </mxCell>
        <mxCell id="tDKQRB13UwWeRB4u-6H--2" value="" style="verticalLabelPosition=bottom;aspect=fixed;html=1;verticalAlign=top;strokeColor=none;fillColor=#000000;align=center;outlineConnect=0;pointerEvents=1;shape=mxgraph.citrix2.mobile;" parent="1" vertex="1">
          <mxGeometry x="155.19" y="505" width="25.255" height="50" as="geometry" />
        </mxCell>
        <mxCell id="tDKQRB13UwWeRB4u-6H--5" value="" style="endArrow=classic;html=1;rounded=0;exitX=0.129;exitY=0.929;exitDx=0;exitDy=0;exitPerimeter=0;" parent="1" edge="1">
          <mxGeometry width="50" height="50" relative="1" as="geometry">
            <mxPoint x="194.18" y="528.87" as="sourcePoint" />
            <mxPoint x="244" y="529" as="targetPoint" />
            <Array as="points">
              <mxPoint x="242.19" y="529" />
            </Array>
          </mxGeometry>
        </mxCell>
        <mxCell id="tDKQRB13UwWeRB4u-6H--6" value="" style="outlineConnect=0;fontColor=#232F3E;gradientColor=none;fillColor=#232F3D;strokeColor=none;dashed=0;verticalLabelPosition=bottom;verticalAlign=top;align=center;html=1;fontSize=12;fontStyle=0;aspect=fixed;pointerEvents=1;shape=mxgraph.aws4.document;" parent="1" vertex="1">
          <mxGeometry x="250" y="9" width="24.12" height="33" as="geometry" />
        </mxCell>
        <mxCell id="tDKQRB13UwWeRB4u-6H--9" value="" style="outlineConnect=0;fontColor=#232F3E;gradientColor=none;fillColor=#232F3D;strokeColor=none;dashed=0;verticalLabelPosition=bottom;verticalAlign=top;align=center;html=1;fontSize=12;fontStyle=0;aspect=fixed;pointerEvents=1;shape=mxgraph.aws4.documents3;" parent="1" vertex="1">
          <mxGeometry x="137.63" y="2" width="29.23" height="40" as="geometry" />
        </mxCell>
        <mxCell id="tDKQRB13UwWeRB4u-6H--11" value="" style="shape=image;html=1;verticalAlign=top;verticalLabelPosition=bottom;labelBackgroundColor=#ffffff;imageAspect=0;aspect=fixed;image=https://cdn4.iconfinder.com/data/icons/ionicons/512/icon-images-128.png;" parent="1" vertex="1">
          <mxGeometry x="190" y="3" width="45" height="45" as="geometry" />
        </mxCell>
        <mxCell id="tDKQRB13UwWeRB4u-6H--24" value="" style="shape=image;html=1;verticalAlign=top;verticalLabelPosition=bottom;labelBackgroundColor=#ffffff;imageAspect=0;aspect=fixed;image=https://cdn4.iconfinder.com/data/icons/essentials-71/24/006_-_Image-128.png;" parent="1" vertex="1">
          <mxGeometry x="400" y="12" width="30" height="30" as="geometry" />
        </mxCell>
        <mxCell id="tDKQRB13UwWeRB4u-6H--26" value="" style="endArrow=classic;html=1;rounded=0;exitX=0.129;exitY=0.929;exitDx=0;exitDy=0;exitPerimeter=0;" parent="1" edge="1">
          <mxGeometry width="50" height="50" relative="1" as="geometry">
            <mxPoint x="300.57" y="529.87" as="sourcePoint" />
            <mxPoint x="358.58" y="529.76" as="targetPoint" />
            <Array as="points">
              <mxPoint x="348.58" y="530" />
            </Array>
          </mxGeometry>
        </mxCell>
        <mxCell id="tDKQRB13UwWeRB4u-6H--28" value="" style="shape=image;html=1;verticalAlign=top;verticalLabelPosition=bottom;labelBackgroundColor=#ffffff;imageAspect=0;aspect=fixed;image=https://cdn4.iconfinder.com/data/icons/ionicons/512/icon-image-128.png;" parent="1" vertex="1">
          <mxGeometry x="291.38" y="5.5" width="40" height="40" as="geometry" />
        </mxCell>
        <mxCell id="tDKQRB13UwWeRB4u-6H--29" value="" style="shape=image;html=1;verticalAlign=top;verticalLabelPosition=bottom;labelBackgroundColor=#ffffff;imageAspect=0;aspect=fixed;image=https://cdn1.iconfinder.com/data/icons/bootstrap-vol-3/16/images-128.png;spacing=1;" parent="1" vertex="1">
          <mxGeometry x="340" y="6.5" width="38" height="38" as="geometry" />
        </mxCell>
        <mxCell id="tDKQRB13UwWeRB4u-6H--36" value="" style="group;" parent="1" vertex="1" connectable="0">
          <mxGeometry x="351.19" y="465" width="80" height="129" as="geometry" />
        </mxCell>
        <mxCell id="tDKQRB13UwWeRB4u-6H--10" value="" style="shape=image;html=1;verticalAlign=top;verticalLabelPosition=bottom;labelBackgroundColor=#ffffff;imageAspect=0;aspect=fixed;image=https://cdn1.iconfinder.com/data/icons/bootstrap-vol-3/16/images-128.png;spacing=1;" parent="tDKQRB13UwWeRB4u-6H--36" vertex="1">
          <mxGeometry x="25.889999999999986" width="37" height="37" as="geometry" />
        </mxCell>
        <mxCell id="tDKQRB13UwWeRB4u-6H--31" value="eles.json" style="text;html=1;align=center;verticalAlign=middle;resizable=0;points=[];autosize=1;strokeColor=none;fillColor=none;fontSize=10;" parent="tDKQRB13UwWeRB4u-6H--36" vertex="1">
          <mxGeometry x="14.379999999999995" y="99" width="60" height="30" as="geometry" />
        </mxCell>
        <mxCell id="tDKQRB13UwWeRB4u-6H--32" value="" style="outlineConnect=0;fontColor=#232F3E;gradientColor=none;fillColor=#232F3D;strokeColor=none;dashed=0;verticalLabelPosition=bottom;verticalAlign=top;align=center;html=1;fontSize=12;fontStyle=0;aspect=fixed;pointerEvents=1;shape=mxgraph.aws4.document;" parent="tDKQRB13UwWeRB4u-6H--36" vertex="1">
          <mxGeometry x="32.329999999999984" y="71" width="24.12" height="33" as="geometry" />
        </mxCell>
        <mxCell id="tDKQRB13UwWeRB4u-6H--33" value="SoM.png&lt;div&gt;layout.png&lt;/div&gt;" style="text;html=1;align=center;verticalAlign=middle;resizable=0;points=[];autosize=1;strokeColor=none;fillColor=none;fontSize=10;" parent="tDKQRB13UwWeRB4u-6H--36" vertex="1">
          <mxGeometry x="5" y="27" width="70" height="40" as="geometry" />
        </mxCell>
        <mxCell id="tDKQRB13UwWeRB4u-6H--38" value="" style="group;" parent="1" vertex="1" connectable="0">
          <mxGeometry x="247.57" y="535" width="40" height="58" as="geometry" />
        </mxCell>
        <mxCell id="tDKQRB13UwWeRB4u-6H--17" value=".xml" style="text;html=1;align=center;verticalAlign=middle;resizable=0;points=[];autosize=1;strokeColor=none;fillColor=none;fontSize=10;" parent="tDKQRB13UwWeRB4u-6H--38" vertex="1">
          <mxGeometry y="28" width="40" height="30" as="geometry" />
        </mxCell>
        <mxCell id="tDKQRB13UwWeRB4u-6H--25" value="" style="outlineConnect=0;fontColor=#232F3E;gradientColor=none;fillColor=#232F3D;strokeColor=none;dashed=0;verticalLabelPosition=bottom;verticalAlign=top;align=center;html=1;fontSize=12;fontStyle=0;aspect=fixed;pointerEvents=1;shape=mxgraph.aws4.document;" parent="tDKQRB13UwWeRB4u-6H--38" vertex="1">
          <mxGeometry x="7.939999999999998" width="24.12" height="33" as="geometry" />
        </mxCell>
        <mxCell id="tDKQRB13UwWeRB4u-6H--39" value="" style="group;" parent="1" vertex="1" connectable="0">
          <mxGeometry x="246.57" y="472" width="40" height="54" as="geometry" />
        </mxCell>
        <mxCell id="tDKQRB13UwWeRB4u-6H--16" value=".png" style="text;html=1;align=center;verticalAlign=middle;resizable=0;points=[];autosize=1;strokeColor=none;fillColor=none;fontSize=10;" parent="tDKQRB13UwWeRB4u-6H--39" vertex="1">
          <mxGeometry y="24" width="40" height="30" as="geometry" />
        </mxCell>
        <mxCell id="tDKQRB13UwWeRB4u-6H--4" value="" style="shape=image;html=1;verticalAlign=top;verticalLabelPosition=bottom;labelBackgroundColor=#ffffff;imageAspect=0;aspect=fixed;image=https://cdn4.iconfinder.com/data/icons/ionicons/512/icon-image-128.png;" parent="tDKQRB13UwWeRB4u-6H--39" vertex="1">
          <mxGeometry x="4" width="34" height="34" as="geometry" />
        </mxCell>
        <mxCell id="tDKQRB13UwWeRB4u-6H--43" value="" style="group;" parent="1" vertex="1" connectable="0">
          <mxGeometry x="362.19" y="640.5" width="70" height="60" as="geometry" />
        </mxCell>
        <mxCell id="tDKQRB13UwWeRB4u-6H--41" value="info.json" style="text;html=1;align=center;verticalAlign=middle;resizable=0;points=[];autosize=1;strokeColor=none;fillColor=none;fontSize=10;" parent="tDKQRB13UwWeRB4u-6H--43" vertex="1">
          <mxGeometry x="5" y="30" width="60" height="30" as="geometry" />
        </mxCell>
        <mxCell id="tDKQRB13UwWeRB4u-6H--42" value="" style="outlineConnect=0;fontColor=#232F3E;gradientColor=none;fillColor=#232F3D;strokeColor=none;dashed=0;verticalLabelPosition=bottom;verticalAlign=top;align=center;html=1;fontSize=12;fontStyle=0;aspect=fixed;pointerEvents=1;shape=mxgraph.aws4.document;" parent="tDKQRB13UwWeRB4u-6H--43" vertex="1">
          <mxGeometry x="22.939999999999998" width="24.12" height="33" as="geometry" />
        </mxCell>
        <mxCell id="tDKQRB13UwWeRB4u-6H--48" value="compare &amp;amp; update" style="text;html=1;align=center;verticalAlign=middle;resizable=0;points=[];autosize=1;strokeColor=none;fillColor=none;fontSize=10;" parent="1" vertex="1">
          <mxGeometry x="462" y="540.5" width="110" height="30" as="geometry" />
        </mxCell>
        <mxCell id="tDKQRB13UwWeRB4u-6H--63" value="" style="shape=image;verticalLabelPosition=bottom;labelBackgroundColor=default;verticalAlign=top;aspect=fixed;imageAspect=0;editableCssRules=.*;image=data:image/svg+xml,PHN2ZyB4bWxuczp4bGluaz0iaHR0cDovL3d3dy53My5vcmcvMTk5OS94bGluayIgeG1sbnM9Imh0dHA6Ly93d3cudzMub3JnLzIwMDAvc3ZnIiBoZWlnaHQ9IjE5OS45OTExOTA0MzM1MDIyIiB3aWR0aD0iMTc4LjAwMzYzMzAyMjMwODM1IiB2ZXJzaW9uPSIxLjEiIHZpZXdCb3g9IjU2LjI4ODIwODAwNzgxMjUgLTAuMDAwMTY4MzQ2NTIzNDIzNjc5MTcgOTExLjM3ODYwMTA3NDIxODggMTAyMy45NTQ4OTUwMTk1MzEyIiBjbGFzcz0iaWNvbiI+PHBhdGggZmlsbD0iIiBkPSJNNTk5LjUwNDUyMSAxMTcuMzY5NTQ1bDIxMC41NDg0MTkgMTIxLjU5MzMxMmE5MS40NzIzMDIgOTEuNDcyMzAyIDAgMCAxIDE0NS40NDI2NjggMTcuMDY1NzI4IDkxLjU1NzYzMSA5MS41NTc2MzEgMCAwIDEtNTcuNzY3NDkgMTM0LjQzNTI3M3YyNDMuMTQzOTZhOTAuOTYwMzMxIDkwLjk2MDMzMSAwIDAgMSA1Ny41MTE1MDQgMTM0LjM5MjYwOSA5MS40Mjk2MzggOTEuNDI5NjM4IDAgMCAxLTE0Ny4zMTk4OTggMTUuMDYwNTA1bC0yMDkuMjY4NDkgMTIwLjgyNTM1NGE5MS4zMDE2NDUgOTEuMzAxNjQ1IDAgMSAxLTE3Ny45NTI4NzkgMjguOTI2NDA5YzAtOC43NDYxODYgMS4yMzcyNjUtMTcuNDkyMzcxIDMuNzU0NDYtMjUuOTgyNTcxbC0yMTAuNTkxMDg0LTEyMS40NjUzMTlhOTEuMzAxNjQ1IDkxLjMwMTY0NSAwIDEgMS04Ny41NDcxODUtMTUxLjg0MjMxNWwwLjA0MjY2NC0yNDMuMTQzOTYxQTkxLjM0NDMwOSA5MS4zNDQzMDkgMCAwIDEgNjguNDYxNzI4IDI1NS45ODU5MjFhOTEuNDI5NjM4IDkxLjQyOTYzOCAwIDAgMSAxNDUuMzU3MzM5LTE3LjI3OTA1bDIxMC42NzY0MTItMTIxLjU5MzMxMkE5MS4yMTYzMTYgOTEuMjE2MzE2IDAgMCAxIDUxMiAwYTkxLjE3MzY1MiA5MS4xNzM2NTIgMCAwIDEgODcuNTA0NTIxIDExNy4zNjk1NDV6IG0tMjEuOTcyMTI1IDM3LjQxNjYwOGEzMy44MzI4MDYgMzMuODMyODA2IDAgMCAxLTIuNDc0NTMxIDIuNDc0NTMxbDI3NS42NTQxNzMgNDc3LjQxMzc0MmMxLjEwOTI3Mi0wLjM4Mzk3OSAyLjM4OTIwMi0wLjY4MjYyOSAzLjQ5ODQ3NC0wLjk4MTI3OVYzOTAuMjA3ODcyYTkxLjA4ODMyMyA5MS4wODgzMjMgMCAwIDEtNjYuNDcxMDExLTExMC40MTUyNjFsMC44MTA2MjItMy4wNzE4MzEtMjExLjAxNzcyNy0xMjEuOTM0NjI3eiBtLTEyOC42MzI5MjUgMi41MTcxOTVsLTIuNTU5ODYtMi41NTk4NTktMjExLjAxNzcyNyAxMjEuNjc4NjQxYTkxLjEzMDk4OCA5MS4xMzA5ODggMCAwIDEtNjIuMzMyNTcyIDExMi44NDcxMjdsLTMuMjQyNDg4IDAuODk1OTUxdjI0My41Mjc5MzlsMy41ODM4MDMgMC45ODEyNzkgMjc1LjY1NDE3Mi00NzcuNDEzNzQyLTAuMDg1MzI4IDAuMDQyNjY0eiBtODguNTcxMTI4IDIxLjYzMDgxMWMtMTYuNjM5MDg1IDQuNzc4NDA0LTM0LjI1OTQ0OSA0Ljc3ODQwNC01MC44NTU4NjkgMGwtMjc1LjYxMTUwOSA0NzcuMzcxMDc4YzEyLjU0MzMxIDEyLjA3NDAwMyAyMS40MTc0ODkgMjcuNTE4NDg2IDI1LjU5ODU5MyA0NC40MTM1NTdoNTUwLjgzOTAzN2M0LjEzODQzOS0xNi45ODAzOTkgMTMuMDk3OTQ2LTMyLjQ2NzU0OCAyNS43MjY1ODUtNDQuNTQxNTVMNTM3LjQ3MDU5OSAxNzguOTM0MTU5eiBtNDIuMDY3MDIgNjkyLjMxMzkyMmwyMDkuNjA5ODA1LTEyMS4wODEzNGE3NC41NzcyMzIgNzQuNTc3MjMyIDAgMCAxLTEuNjIxMjQ1LTYuMDU4MzM0SDIzNi40NzM4MjFsLTAuODk1OTUxIDMuNTQxMTM5IDIxMC43MTkwNzcgMTIxLjY3ODY0MWE5MC43MDQzNDUgOTAuNzA0MzQ1IDAgMCAxIDY1LjcwMzA1My0yNy44NTk4MDFjMjYuNzUwNTI5IDAgNTAuNzcwNTQxIDExLjQ3NjcwMiA2Ny41Mzc2MTkgMjkuNzc5Njk1eiIvPjwvc3ZnPg==;" parent="1" vertex="1">
          <mxGeometry x="450" y="9" width="36.49" height="41" as="geometry" />
        </mxCell>
        <mxCell id="tDKQRB13UwWeRB4u-6H--67" value="" style="shape=image;verticalLabelPosition=bottom;labelBackgroundColor=default;verticalAlign=top;aspect=fixed;imageAspect=0;editableCssRules=.*;image=data:image/svg+xml,PHN2ZyB4bWxuczp4bGluaz0iaHR0cDovL3d3dy53My5vcmcvMTk5OS94bGluayIgeG1sbnM9Imh0dHA6Ly93d3cudzMub3JnLzIwMDAvc3ZnIiBoZWlnaHQ9IjIwMCIgd2lkdGg9IjE1MC4wMDU5ODQzMDYzMzU0NSIgdmVyc2lvbj0iMS4xIiB2aWV3Qm94PSIxMjcuOTg1MTk4OTc0NjA5MzggMCA3NjguMDMwNjM5NjQ4NDM3NSAxMDI0IiBjbGFzcz0iaWNvbiI+PHBhdGggZmlsbD0iIzAwMDAwMCIgZD0iTTYzMy4yNzQ0NTMgMjU4LjkwMTMzM2MwIDY2LjA0OC0yNC4xNDkzMzMgMTI2LjM3ODY2Ny02NCAxNzIuMTE3MzM0YTU3LjQyOTMzMyA1Ny40MjkzMzMgMCAwIDEtNDQuODg1MzMzIDE5LjU0MTMzM0g1MjEuNDAyNDUzYTEzLjU2OCAxMy41NjggMCAwIDEtMTMuMzEyLTEzLjY1MzMzM2wtMC4xNzA2NjYtMjQuMTQ5MzM0YTIzLjg5MzMzMyAyMy44OTMzMzMgMCAwIDEgNi42NTYtMTYuNTU0NjY2aDAuMDg1MzMzYzM1Ljc1NDY2Ny0zNi42OTMzMzMgNTUuNDY2NjY3LTg1LjQxODY2NyA1NS40NjY2NjctMTM3LjMwMTMzNCAwLTUxLjg4MjY2Ny0xOS43MTItMTAwLjY5MzMzMy01NS40NjY2NjctMTM3LjM4NjY2NmExODYuMjgyNjY3IDE4Ni4yODI2NjcgMCAwIDAtMjY3Ljk0NjY2NyAwIDE5NS43NTQ2NjcgMTk1Ljc1NDY2NyAwIDAgMC01NS40NjY2NjYgMTM3LjM4NjY2NmMwIDUxLjg4MjY2NyAxOS42MjY2NjcgMTAwLjY5MzMzMyA1NS40NjY2NjYgMTM3LjM4NjY2N2EyNi40NTMzMzMgMjYuNDUzMzMzIDAgMCAxIDcuNTA5MzM0IDE4Ljc3MzMzM2MtMC4wODUzMzMgMzAuMDM3MzMzLTM1Ljg0IDQ0LjU0NC01Ni4wNjQgMjIuOTU0NjY3QTI2MS41NDY2NjcgMjYxLjU0NjY2NyAwIDAgMSAxMjguMDE1Nzg3IDI1OC45ODY2NjdDMTI4LjAxNTc4NyAxMTUuODgyNjY3IDI0MS4wODI0NTMgMCAzODAuNjAyNDUzIDBjMTM5LjYwNTMzMyAwIDI1Mi42NzIgMTE1Ljg4MjY2NyAyNTIuNjcyIDI1OC45MDEzMzN6Ii8+PHBhdGggZmlsbD0iIzAwMDAwMCIgZD0iTTg5Ni4wMTU3ODcgNjA2LjcydjM1My43MDY2NjdzLTEuMTA5MzMzIDkuMTMwNjY3LTExLjA5MzMzNCAyMy4wNGMtMTguNDMyIDI1LjYtNDguMjk4NjY3IDQwLjQ0OC03OS45NTczMzMgNDAuNDQ4TDQzNS4xMzA0NTMgMTAyNGExMTMuNDkzMzMzIDExMy40OTMzMzMgMCAwIDEtODguNDkwNjY2LTQyLjQxMDY2N0wxNDMuODg3Nzg3IDcyOS4zNDRhNzAuNDg1MzMzIDcwLjQ4NTMzMyAwIDAgMS0xMC4yNC03Mi4yNzczMzMgNDYuNDIxMzMzIDQ2LjQyMTMzMyAwIDAgMSA0NS44MjQtMjkuNjEwNjY3YzEyLjk3MDY2NyAwIDI5LjAxMzMzMyAzLjU4NCA0OC44MTA2NjYgMTIuMjAyNjY3IDY1Ljk2MjY2NyAyOS40NCA4OS42IDkxLjU2MjY2NyA4OS42IDkxLjU2MjY2NmwxLjAyNC0yMjQuNjgyNjY2IDAuMjU2LTY2LjMwNCAwLjg1MzMzNC0xNjIuNDc0NjY3YTcyLjM2MjY2NyA3Mi4zNjI2NjcgMCAwIDEgMjguMjQ1MzMzLTU3LjM0NCA2Ny42NjkzMzMgNjcuNjY5MzMzIDAgMCAxIDQwLjEwNjY2Ny0xNS42MTZjMTAuMjQgMCAyMS4xNjI2NjcgMy40MTMzMzMgMzIgMTEuODYxMzMzIDE3LjQ5MzMzMyAxMy42NTMzMzMgMjcuMzA2NjY3IDM0LjczMDY2NyAyNy40NzczMzMgNTYuNzQ2NjY3bDAuNTk3MzMzIDE2Ni40ODUzMzMgMC4xNzA2NjcgNjYuNDc0NjY3IDAuMjU2IDQ4LjI5ODY2N3MzMS4yMzItNDIuNDEwNjY3IDc3LjA1Ni00Mi40MTA2NjdjMjQuNTc2IDAgNTMuMjQ4IDEyLjExNzMzMyA4My41NDEzMzMgNDkuNDkzMzMzIDAgMCAyOC4wNzQ2NjctNDcuMDE4NjY3IDczLjIxNi00Ny4wMTg2NjYgMjMuNjM3MzMzIDAgNTIuMDUzMzMzIDEyLjggODMuNDU2IDUyLjA1MzMzMyAwIDAgMjcuMjIxMzMzLTUyLjkwNjY2NyA2NC4xNzA2NjctNTIuOTA2NjY3IDEyLjQ1ODY2NyAwIDI2LjAyNjY2NyA2LjE0NCA0MC4xMDY2NjcgMjIuMzU3MzM0IDE2LjY0IDE5LjYyNjY2NyAyNS42IDQ0LjYyOTMzMyAyNS42IDcwLjR6Ii8+PC9zdmc+;" parent="1" vertex="1">
          <mxGeometry x="496" y="12" width="30" height="40" as="geometry" />
        </mxCell>
        <mxCell id="tDKQRB13UwWeRB4u-6H--70" value="" style="endArrow=classic;html=1;rounded=0;" parent="1" edge="1">
          <mxGeometry width="50" height="50" relative="1" as="geometry">
            <mxPoint x="399.19" y="458" as="sourcePoint" />
            <mxPoint x="398.84999999999997" y="421" as="targetPoint" />
          </mxGeometry>
        </mxCell>
        <mxCell id="tDKQRB13UwWeRB4u-6H--76" value="" style="endArrow=classic;html=1;rounded=0;" parent="1" edge="1">
          <mxGeometry width="50" height="50" relative="1" as="geometry">
            <mxPoint x="370" y="385.5" as="sourcePoint" />
            <mxPoint x="168.19" y="495" as="targetPoint" />
            <Array as="points">
              <mxPoint x="168.19" y="385" />
            </Array>
          </mxGeometry>
        </mxCell>
        <mxCell id="tDKQRB13UwWeRB4u-6H--77" value="interaction" style="text;html=1;align=center;verticalAlign=middle;resizable=0;points=[];autosize=1;strokeColor=none;fillColor=none;fontSize=10;" parent="1" vertex="1">
          <mxGeometry x="232.57" y="380" width="70" height="30" as="geometry" />
        </mxCell>
        <mxCell id="tDKQRB13UwWeRB4u-6H--80" value="" style="shape=image;verticalLabelPosition=bottom;labelBackgroundColor=default;verticalAlign=top;aspect=fixed;imageAspect=0;editableCssRules=.*;image=data:image/svg+xml,PHN2ZyB4bWxuczp4bGluaz0iaHR0cDovL3d3dy53My5vcmcvMTk5OS94bGluayIgeG1sbnM9Imh0dHA6Ly93d3cudzMub3JnLzIwMDAvc3ZnIiBoZWlnaHQ9IjE1Ni4yNTE0MzA1MTE0NzQ2IiB3aWR0aD0iMTU2LjI1IiB2ZXJzaW9uPSIxLjEiIHZpZXdCb3g9IjExMiAxMTEuOTkyNjkxMDQwMDM5MDYgODAwIDgwMC4wMDczMjQyMTg3NSIgY2xhc3M9Imljb24iPjxwYXRoIGZpbGw9IiM0NDQ0NDQiIGQ9Ik03MTcuMTIgMjc0SDc2MmM4Mi44NDIgMCAxNTAgNjcuMTU4IDE1MCAxNTB2MjAwYzAgODIuODQyLTY3LjE1OCAxNTAtMTUwIDE1MEgyNjJjLTgyLjg0MiAwLTE1MC02Ny4xNTgtMTUwLTE1MFY0MjRjMC04Mi44NDIgNjcuMTU4LTE1MCAxNTAtMTUwaDQ0Ljg4bC0xOC4yNjgtMTA5LjYwMmMtNC4wODYtMjQuNTE0IDEyLjQ3Ni00Ny43IDM2Ljk5LTUxLjc4NiAyNC41MTQtNC4wODYgNDcuNyAxMi40NzYgNTEuNzg2IDM2Ljk5bDIwIDEyMGMwLjI0NiAxLjQ3MiAwLjQxNiAyLjk0IDAuNTE2IDQuMzk4aDIyOC4xOTJjMC4xLTEuNDYgMC4yNy0yLjkyNiAwLjUxNi00LjM5OGwyMC0xMjBjNC4wODYtMjQuNTE0IDI3LjI3Mi00MS4wNzYgNTEuNzg2LTM2Ljk5IDI0LjUxNCA0LjA4NiA0MS4wNzYgMjcuMjcyIDM2Ljk5IDUxLjc4Nkw3MTcuMTIgMjc0ek0yNjIgMzY0Yy0zMy4xMzggMC02MCAyNi44NjItNjAgNjB2MjAwYzAgMzMuMTM4IDI2Ljg2MiA2MCA2MCA2MGg1MDBjMzMuMTM4IDAgNjAtMjYuODYyIDYwLTYwVjQyNGMwLTMzLjEzOC0yNi44NjItNjAtNjAtNjBIMjYyeiBtNTAgNTQ4Yy0yNC44NTIgMC00NS0yMC4xNDgtNDUtNDVTMjg3LjE0OCA4MjIgMzEyIDgyMmg0MDBjMjQuODUyIDAgNDUgMjAuMTQ4IDQ1IDQ1UzczNi44NTIgOTEyIDcxMiA5MTJIMzEyeiBtLTQtNDI4YzAtMjQuODUyIDIwLjE0OC00NSA0NS00NVMzOTggNDU5LjE0OCAzOTggNDg0djQwYzAgMjQuODUyLTIwLjE0OCA0NS00NSA0NVMzMDggNTQ4Ljg1MiAzMDggNTI0di00MHogbTMxOCAwYzAtMjQuODUyIDIwLjE0OC00NSA0NS00NVM3MTYgNDU5LjE0OCA3MTYgNDg0djQwYzAgMjQuODUyLTIwLjE0OCA0NS00NSA0NVM2MjYgNTQ4Ljg1MiA2MjYgNTI0di00MHoiLz48L3N2Zz4=;" parent="1" vertex="1">
          <mxGeometry x="537.5" y="12.25" width="34.5" height="34.5" as="geometry" />
        </mxCell>
        <mxCell id="tDKQRB13UwWeRB4u-6H--82" value="" style="endArrow=classic;html=1;rounded=0;" parent="1" edge="1">
          <mxGeometry width="50" height="50" relative="1" as="geometry">
            <mxPoint x="80" y="525.5" as="sourcePoint" />
            <mxPoint x="140" y="525.5" as="targetPoint" />
          </mxGeometry>
        </mxCell>
        <mxCell id="tDKQRB13UwWeRB4u-6H--83" value="start" style="text;html=1;align=center;verticalAlign=middle;resizable=0;points=[];autosize=1;strokeColor=none;fillColor=none;fontSize=10;" parent="1" vertex="1">
          <mxGeometry x="87.63" y="518" width="40" height="30" as="geometry" />
        </mxCell>
        <mxCell id="tDKQRB13UwWeRB4u-6H--84" value="" style="aspect=fixed;pointerEvents=1;shadow=0;dashed=0;html=1;strokeColor=none;labelPosition=center;verticalLabelPosition=bottom;verticalAlign=top;align=center;fillColor=#232F3D;shape=mxgraph.mscae.enterprise.filter;" parent="1" vertex="1">
          <mxGeometry x="700" y="9" width="50" height="45" as="geometry" />
        </mxCell>
        <mxCell id="tDKQRB13UwWeRB4u-6H--85" value="" style="shape=image;html=1;verticalAlign=top;verticalLabelPosition=bottom;labelBackgroundColor=#ffffff;imageAspect=0;aspect=fixed;image=https://cdn1.iconfinder.com/data/icons/bootstrap-vol-3/16/images-128.png;spacing=1;" parent="1" vertex="1">
          <mxGeometry x="143" y="1032" width="38" height="38" as="geometry" />
        </mxCell>
        <mxCell id="tDKQRB13UwWeRB4u-6H--90" value="layouts.png" style="text;html=1;align=center;verticalAlign=middle;resizable=0;points=[];autosize=1;strokeColor=none;fillColor=none;" parent="1" vertex="1">
          <mxGeometry x="122" y="1066" width="80" height="30" as="geometry" />
        </mxCell>
        <mxCell id="tDKQRB13UwWeRB4u-6H--91" value="" style="shape=image;html=1;verticalAlign=top;verticalLabelPosition=bottom;labelBackgroundColor=#ffffff;imageAspect=0;aspect=fixed;image=https://cdn4.iconfinder.com/data/icons/ionicons/512/icon-image-128.png;" parent="1" vertex="1">
          <mxGeometry x="298" y="1070" width="40" height="40" as="geometry" />
        </mxCell>
        <mxCell id="tDKQRB13UwWeRB4u-6H--92" value="current_layout.png" style="text;html=1;align=center;verticalAlign=middle;resizable=0;points=[];autosize=1;strokeColor=none;fillColor=none;" parent="1" vertex="1">
          <mxGeometry x="258" y="1103" width="120" height="30" as="geometry" />
        </mxCell>
        <mxCell id="tDKQRB13UwWeRB4u-6H--93" value="" style="shape=image;html=1;verticalAlign=top;verticalLabelPosition=bottom;labelBackgroundColor=#ffffff;imageAspect=0;aspect=fixed;image=https://cdn1.iconfinder.com/data/icons/bootstrap-vol-3/16/images-128.png;spacing=1;" parent="1" vertex="1">
          <mxGeometry x="299" y="994" width="38" height="38" as="geometry" />
        </mxCell>
        <mxCell id="tDKQRB13UwWeRB4u-6H--94" value="layouts.png" style="text;html=1;align=center;verticalAlign=middle;resizable=0;points=[];autosize=1;strokeColor=none;fillColor=none;" parent="1" vertex="1">
          <mxGeometry x="278" y="1028" width="80" height="30" as="geometry" />
        </mxCell>
        <mxCell id="tDKQRB13UwWeRB4u-6H--95" value="" style="group;" parent="1" vertex="1" connectable="0">
          <mxGeometry x="123" y="960.5" width="85" height="60" as="geometry" />
        </mxCell>
        <mxCell id="tDKQRB13UwWeRB4u-6H--96" value="current_info.json" style="text;html=1;align=center;verticalAlign=middle;resizable=0;points=[];autosize=1;strokeColor=none;fillColor=none;fontSize=10;" parent="tDKQRB13UwWeRB4u-6H--95" vertex="1">
          <mxGeometry x="-15" y="30" width="100" height="30" as="geometry" />
        </mxCell>
        <mxCell id="tDKQRB13UwWeRB4u-6H--97" value="" style="outlineConnect=0;fontColor=#232F3E;gradientColor=none;fillColor=#232F3D;strokeColor=none;dashed=0;verticalLabelPosition=bottom;verticalAlign=top;align=center;html=1;fontSize=12;fontStyle=0;aspect=fixed;pointerEvents=1;shape=mxgraph.aws4.document;" parent="1" vertex="1">
          <mxGeometry x="148.94000000000005" y="960.5" width="24.12" height="33" as="geometry" />
        </mxCell>
        <mxCell id="tDKQRB13UwWeRB4u-6H--100" value="" style="group;" parent="1" vertex="1" connectable="0">
          <mxGeometry x="196" y="980.5" width="90" height="80" as="geometry" />
        </mxCell>
        <mxCell id="tDKQRB13UwWeRB4u-6H--87" value="" style="endArrow=none;html=1;rounded=0;startFill=0;" parent="tDKQRB13UwWeRB4u-6H--100" edge="1">
          <mxGeometry width="50" height="50" relative="1" as="geometry">
            <mxPoint y="80" as="sourcePoint" />
            <mxPoint as="targetPoint" />
            <Array as="points">
              <mxPoint x="40" y="80" />
              <mxPoint x="40" />
            </Array>
          </mxGeometry>
        </mxCell>
        <mxCell id="tDKQRB13UwWeRB4u-6H--98" value="" style="endArrow=classic;html=1;rounded=0;" parent="tDKQRB13UwWeRB4u-6H--100" edge="1">
          <mxGeometry width="50" height="50" relative="1" as="geometry">
            <mxPoint x="40" y="40" as="sourcePoint" />
            <mxPoint x="90" y="40" as="targetPoint" />
          </mxGeometry>
        </mxCell>
        <mxCell id="tDKQRB13UwWeRB4u-6H--101" value="" style="group;" parent="1" vertex="1" connectable="0">
          <mxGeometry x="346" y="1011.5" width="90" height="80" as="geometry" />
        </mxCell>
        <mxCell id="tDKQRB13UwWeRB4u-6H--102" value="" style="endArrow=none;html=1;rounded=0;startFill=0;" parent="tDKQRB13UwWeRB4u-6H--101" edge="1">
          <mxGeometry width="50" height="50" relative="1" as="geometry">
            <mxPoint y="80" as="sourcePoint" />
            <mxPoint as="targetPoint" />
            <Array as="points">
              <mxPoint x="40" y="80" />
              <mxPoint x="40" />
            </Array>
          </mxGeometry>
        </mxCell>
        <mxCell id="tDKQRB13UwWeRB4u-6H--103" value="" style="endArrow=classic;html=1;rounded=0;" parent="tDKQRB13UwWeRB4u-6H--101" edge="1">
          <mxGeometry width="50" height="50" relative="1" as="geometry">
            <mxPoint x="40" y="40" as="sourcePoint" />
            <mxPoint x="90" y="40" as="targetPoint" />
          </mxGeometry>
        </mxCell>
        <mxCell id="tDKQRB13UwWeRB4u-6H--108" value="" style="shape=image;verticalLabelPosition=bottom;labelBackgroundColor=default;verticalAlign=top;aspect=fixed;imageAspect=0;editableCssRules=.*;image=data:image/svg+xml,PHN2ZyB4bWxuczp4bGluaz0iaHR0cDovL3d3dy53My5vcmcvMTk5OS94bGluayIgeG1sbnM9Imh0dHA6Ly93d3cudzMub3JnLzIwMDAvc3ZnIiBoZWlnaHQ9IjE1Ni4yNTE0MzA1MTE0NzQ2IiB3aWR0aD0iMTU2LjI1IiB2ZXJzaW9uPSIxLjEiIHZpZXdCb3g9IjExMiAxMTEuOTkyNjkxMDQwMDM5MDYgODAwIDgwMC4wMDczMjQyMTg3NSIgY2xhc3M9Imljb24iPjxwYXRoIGZpbGw9IiM0NDQ0NDQiIGQ9Ik03MTcuMTIgMjc0SDc2MmM4Mi44NDIgMCAxNTAgNjcuMTU4IDE1MCAxNTB2MjAwYzAgODIuODQyLTY3LjE1OCAxNTAtMTUwIDE1MEgyNjJjLTgyLjg0MiAwLTE1MC02Ny4xNTgtMTUwLTE1MFY0MjRjMC04Mi44NDIgNjcuMTU4LTE1MCAxNTAtMTUwaDQ0Ljg4bC0xOC4yNjgtMTA5LjYwMmMtNC4wODYtMjQuNTE0IDEyLjQ3Ni00Ny43IDM2Ljk5LTUxLjc4NiAyNC41MTQtNC4wODYgNDcuNyAxMi40NzYgNTEuNzg2IDM2Ljk5bDIwIDEyMGMwLjI0NiAxLjQ3MiAwLjQxNiAyLjk0IDAuNTE2IDQuMzk4aDIyOC4xOTJjMC4xLTEuNDYgMC4yNy0yLjkyNiAwLjUxNi00LjM5OGwyMC0xMjBjNC4wODYtMjQuNTE0IDI3LjI3Mi00MS4wNzYgNTEuNzg2LTM2Ljk5IDI0LjUxNCA0LjA4NiA0MS4wNzYgMjcuMjcyIDM2Ljk5IDUxLjc4Nkw3MTcuMTIgMjc0ek0yNjIgMzY0Yy0zMy4xMzggMC02MCAyNi44NjItNjAgNjB2MjAwYzAgMzMuMTM4IDI2Ljg2MiA2MCA2MCA2MGg1MDBjMzMuMTM4IDAgNjAtMjYuODYyIDYwLTYwVjQyNGMwLTMzLjEzOC0yNi44NjItNjAtNjAtNjBIMjYyeiBtNTAgNTQ4Yy0yNC44NTIgMC00NS0yMC4xNDgtNDUtNDVTMjg3LjE0OCA4MjIgMzEyIDgyMmg0MDBjMjQuODUyIDAgNDUgMjAuMTQ4IDQ1IDQ1UzczNi44NTIgOTEyIDcxMiA5MTJIMzEyeiBtLTQtNDI4YzAtMjQuODUyIDIwLjE0OC00NSA0NS00NVMzOTggNDU5LjE0OCAzOTggNDg0djQwYzAgMjQuODUyLTIwLjE0OCA0NS00NSA0NVMzMDggNTQ4Ljg1MiAzMDggNTI0di00MHogbTMxOCAwYzAtMjQuODUyIDIwLjE0OC00NSA0NS00NVM3MTYgNDU5LjE0OCA3MTYgNDg0djQwYzAgMjQuODUyLTIwLjE0OCA0NS00NSA0NVM2MjYgNTQ4Ljg1MiA2MjYgNTI0di00MHoiLz48L3N2Zz4=;" parent="1" vertex="1">
          <mxGeometry x="447.75" y="942.5" width="34.5" height="34.5" as="geometry" />
        </mxCell>
        <mxCell id="tDKQRB13UwWeRB4u-6H--112" value="VLLM" style="text;html=1;align=center;verticalAlign=middle;resizable=0;points=[];autosize=1;strokeColor=none;fillColor=none;" parent="1" vertex="1">
          <mxGeometry x="440" y="975.25" width="50" height="30" as="geometry" />
        </mxCell>
        <mxCell id="tDKQRB13UwWeRB4u-6H--110" value="" style="endArrow=none;html=1;rounded=0;startFill=0;" parent="1" edge="1">
          <mxGeometry width="50" height="50" relative="1" as="geometry">
            <mxPoint x="386" y="1120.5" as="sourcePoint" />
            <mxPoint x="496" y="960.5" as="targetPoint" />
            <Array as="points">
              <mxPoint x="536" y="1120.5" />
              <mxPoint x="536" y="960.5" />
            </Array>
          </mxGeometry>
        </mxCell>
        <mxCell id="tDKQRB13UwWeRB4u-6H--111" value="" style="endArrow=classic;html=1;rounded=0;" parent="1" edge="1">
          <mxGeometry width="50" height="50" relative="1" as="geometry">
            <mxPoint x="496" y="1049.67" as="sourcePoint" />
            <mxPoint x="576" y="1049.5" as="targetPoint" />
          </mxGeometry>
        </mxCell>
        <mxCell id="tDKQRB13UwWeRB4u-6H--115" value="" style="group;" parent="1" vertex="1" connectable="0">
          <mxGeometry x="415" y="1025" width="100" height="63" as="geometry" />
        </mxCell>
        <mxCell id="tDKQRB13UwWeRB4u-6H--104" value="" style="shape=image;html=1;verticalAlign=top;verticalLabelPosition=bottom;labelBackgroundColor=#ffffff;imageAspect=0;aspect=fixed;image=https://cdn1.iconfinder.com/data/icons/bootstrap-vol-3/16/images-128.png;spacing=1;" parent="tDKQRB13UwWeRB4u-6H--115" vertex="1">
          <mxGeometry x="31" width="38" height="38" as="geometry" />
        </mxCell>
        <mxCell id="tDKQRB13UwWeRB4u-6H--106" value="candidate.png" style="text;html=1;align=center;verticalAlign=middle;resizable=0;points=[];autosize=1;strokeColor=none;fillColor=none;" parent="tDKQRB13UwWeRB4u-6H--115" vertex="1">
          <mxGeometry y="33" width="100" height="30" as="geometry" />
        </mxCell>
        <mxCell id="tDKQRB13UwWeRB4u-6H--117" value="same_image_index" style="text;html=1;align=center;verticalAlign=middle;resizable=0;points=[];autosize=1;strokeColor=none;fillColor=none;" parent="1" vertex="1">
          <mxGeometry x="572" y="1033" width="130" height="30" as="geometry" />
        </mxCell>
        <mxCell id="tDKQRB13UwWeRB4u-6H--118" value="&lt;span style=&quot;text-wrap-mode: nowrap;&quot;&gt;same page checker&lt;/span&gt;" style="rounded=0;whiteSpace=wrap;html=1;" parent="1" vertex="1">
          <mxGeometry x="253" y="828.5" width="120" height="35" as="geometry" />
        </mxCell>
        <mxCell id="tDKQRB13UwWeRB4u-6H--119" value="" style="group;" parent="1" vertex="1" connectable="0">
          <mxGeometry x="370" y="360" width="60" height="62" as="geometry" />
        </mxCell>
        <mxCell id="tDKQRB13UwWeRB4u-6H--75" value="element" style="text;html=1;align=center;verticalAlign=middle;resizable=0;points=[];autosize=1;strokeColor=none;fillColor=none;fontSize=10;" parent="tDKQRB13UwWeRB4u-6H--119" vertex="1">
          <mxGeometry y="32" width="60" height="30" as="geometry" />
        </mxCell>
        <mxCell id="tDKQRB13UwWeRB4u-6H--68" value="" style="shape=image;verticalLabelPosition=bottom;labelBackgroundColor=default;verticalAlign=top;aspect=fixed;imageAspect=0;editableCssRules=.*;image=data:image/svg+xml,PHN2ZyB4bWxuczp4bGluaz0iaHR0cDovL3d3dy53My5vcmcvMTk5OS94bGluayIgeG1sbnM9Imh0dHA6Ly93d3cudzMub3JnLzIwMDAvc3ZnIiBoZWlnaHQ9IjE3OS4xNjY2NzQ2MTM5NTI2NCIgd2lkdGg9IjE3OS4xNjY2NzQ2MTM5NTI2NCIgdmVyc2lvbj0iMS4xIiB2aWV3Qm94PSI1My4zMzMzMjgyNDcwNzAzMSA1My4zMzMzMzU4NzY0NjQ4NDQgOTE3LjMzMzM3NDAyMzQzNzUgOTE3LjMzMzM3NDAyMzQzNzUiIGNsYXNzPSJpY29uIj48cGF0aCBmaWxsPSIjMjkyRDMyIiBkPSJNMzUyLjg1MzMzMyA5NzAuNjY2NjY3SDE4MC40OGMtODUuNTQ2NjY3IDAtMTI3LjE0NjY2Ny0zOS43NjUzMzMtMTI3LjE0NjY2Ny0xMjEuNlYxNzQuOTMzMzMzYzAtODEuODM0NjY3IDQxLjYtMTIxLjYgMTI3LjE0NjY2Ny0xMjEuNmgxNzIuMzczMzMzYzg1LjU0NjY2NyAwIDEyNy4xNDY2NjcgMzkuNzY1MzMzIDEyNy4xNDY2NjcgMTIxLjZ2Njc0LjEzMzMzNGMwIDgxLjgzNDY2Ny00MS42IDEyMS42LTEyNy4xNDY2NjcgMTIxLjZ6IG0tMTcyLjM3MzMzMy04NTMuMzMzMzM0Yy01NC4wMTYgMC02My4xNDY2NjcgMTQuMzc4NjY3LTYzLjE0NjY2NyA1Ny42djY3NC4xMzMzMzRjMCA0My4yMjEzMzMgOS4xMzA2NjcgNTcuNiA2My4xNDY2NjcgNTcuNmgxNzIuMzczMzMzYzU0LjAxNiAwIDYzLjE0NjY2Ny0xNC4zNzg2NjcgNjMuMTQ2NjY3LTU3LjZWMTc0LjkzMzMzM2MwLTQzLjIyMTMzMy05LjEzMDY2Ny01Ny42LTYzLjE0NjY2Ny01Ny42eiIvPjxwYXRoIGZpbGw9IiMyOTJEMzIiIGQ9Ik04NDMuNTIgNTg2LjY2NjY2N2gtMTcyLjM3MzMzM2MtODUuNTQ2NjY3IDAtMTI3LjE0NjY2Ny0zOS43NjUzMzMtMTI3LjE0NjY2Ny0xMjEuNlYxNzQuOTMzMzMzYzAtODEuODM0NjY3IDQxLjYtMTIxLjYgMTI3LjE0NjY2Ny0xMjEuNmgxNzIuMzczMzMzYzg1LjU0NjY2NyAwIDEyNy4xNDY2NjcgMzkuNzY1MzMzIDEyNy4xNDY2NjcgMTIxLjZ2MjkwLjEzMzMzNGMwIDgxLjgzNDY2Ny00MS42IDEyMS42LTEyNy4xNDY2NjcgMTIxLjZ6IG0tMTcyLjM3MzMzMy00NjkuMzMzMzM0Yy01NC4wMTYgMC02My4xNDY2NjcgMTQuMzc4NjY3LTYzLjE0NjY2NyA1Ny42djI5MC4xMzMzMzRjMCA0My4yMjEzMzMgOS4xMzA2NjcgNTcuNiA2My4xNDY2NjcgNTcuNmgxNzIuMzczMzMzYzU0LjAxNiAwIDYzLjE0NjY2Ny0xNC4zNzg2NjcgNjMuMTQ2NjY3LTU3LjZWMTc0LjkzMzMzM2MwLTQzLjIyMTMzMy05LjEzMDY2Ny01Ny42LTYzLjE0NjY2Ny01Ny42ek04NDMuNTIgOTcwLjY2NjY2N2gtMTcyLjM3MzMzM2MtODUuNTQ2NjY3IDAtMTI3LjE0NjY2Ny0zOS43NjUzMzMtMTI3LjE0NjY2Ny0xMjEuNnYtNzYuOGMwLTgxLjgzNDY2NyA0MS42LTEyMS42IDEyNy4xNDY2NjctMTIxLjZoMTcyLjM3MzMzM2M4NS41NDY2NjcgMCAxMjcuMTQ2NjY3IDM5Ljc2NTMzMyAxMjcuMTQ2NjY3IDEyMS42djc2LjhjMCA4MS44MzQ2NjctNDEuNiAxMjEuNi0xMjcuMTQ2NjY3IDEyMS42eiBtLTE3Mi4zNzMzMzMtMjU2Yy01NC4wMTYgMC02My4xNDY2NjcgMTQuMzc4NjY3LTYzLjE0NjY2NyA1Ny42djc2LjhjMCA0My4yMjEzMzMgOS4xMzA2NjcgNTcuNiA2My4xNDY2NjcgNTcuNmgxNzIuMzczMzMzYzU0LjAxNiAwIDYzLjE0NjY2Ny0xNC4zNzg2NjcgNjMuMTQ2NjY3LTU3LjZ2LTc2LjhjMC00My4yMjEzMzMtOS4xMzA2NjctNTcuNi02My4xNDY2NjctNTcuNnoiLz48L3N2Zz4=;" parent="tDKQRB13UwWeRB4u-6H--119" vertex="1">
          <mxGeometry x="12.810000000000002" width="37" height="37" as="geometry" />
        </mxCell>
        <mxCell id="tDKQRB13UwWeRB4u-6H--35" value="summary" style="text;html=1;align=center;verticalAlign=middle;resizable=0;points=[];autosize=1;strokeColor=none;fillColor=none;fontSize=10;" parent="1" vertex="1">
          <mxGeometry x="336.38" y="595" width="60" height="30" as="geometry" />
        </mxCell>
        <mxCell id="tDKQRB13UwWeRB4u-6H--120" value="" style="endArrow=classic;html=1;rounded=0;" parent="1" edge="1">
          <mxGeometry width="50" height="50" relative="1" as="geometry">
            <mxPoint x="397" y="594.5" as="sourcePoint" />
            <mxPoint x="397" y="634.5" as="targetPoint" />
          </mxGeometry>
        </mxCell>
        <mxCell id="tDKQRB13UwWeRB4u-6H--122" value="" style="endArrow=none;html=1;rounded=0;startFill=0;" parent="1" edge="1">
          <mxGeometry width="50" height="50" relative="1" as="geometry">
            <mxPoint x="430" y="655.5" as="sourcePoint" />
            <mxPoint x="430" y="485.5" as="targetPoint" />
            <Array as="points">
              <mxPoint x="470" y="655.5" />
              <mxPoint x="470" y="485.5" />
            </Array>
          </mxGeometry>
        </mxCell>
        <mxCell id="tDKQRB13UwWeRB4u-6H--123" value="" style="endArrow=classic;html=1;rounded=0;" parent="1" edge="1">
          <mxGeometry width="50" height="50" relative="1" as="geometry">
            <mxPoint x="470" y="565.5" as="sourcePoint" />
            <mxPoint x="560" y="565.5" as="targetPoint" />
          </mxGeometry>
        </mxCell>
        <mxCell id="tDKQRB13UwWeRB4u-6H--125" value="" style="group;" parent="1" vertex="1" connectable="0">
          <mxGeometry x="556.81" y="540.5" width="60" height="65" as="geometry" />
        </mxCell>
        <mxCell id="tDKQRB13UwWeRB4u-6H--53" value="" style="shape=image;verticalLabelPosition=bottom;labelBackgroundColor=default;verticalAlign=top;aspect=fixed;imageAspect=0;editableCssRules=.*;image=data:image/svg+xml,PHN2ZyB4bWxuczp4bGluaz0iaHR0cDovL3d3dy53My5vcmcvMTk5OS94bGluayIgeG1sbnM9Imh0dHA6Ly93d3cudzMub3JnLzIwMDAvc3ZnIiBoZWlnaHQ9IjE5OS45OTExOTA0MzM1MDIyIiB3aWR0aD0iMTc4LjAwMzYzMzAyMjMwODM1IiB2ZXJzaW9uPSIxLjEiIHZpZXdCb3g9IjU2LjI4ODIwODAwNzgxMjUgLTAuMDAwMTY4MzQ2NTIzNDIzNjc5MTcgOTExLjM3ODYwMTA3NDIxODggMTAyMy45NTQ4OTUwMTk1MzEyIiBjbGFzcz0iaWNvbiI+PHBhdGggZmlsbD0iIiBkPSJNNTk5LjUwNDUyMSAxMTcuMzY5NTQ1bDIxMC41NDg0MTkgMTIxLjU5MzMxMmE5MS40NzIzMDIgOTEuNDcyMzAyIDAgMCAxIDE0NS40NDI2NjggMTcuMDY1NzI4IDkxLjU1NzYzMSA5MS41NTc2MzEgMCAwIDEtNTcuNzY3NDkgMTM0LjQzNTI3M3YyNDMuMTQzOTZhOTAuOTYwMzMxIDkwLjk2MDMzMSAwIDAgMSA1Ny41MTE1MDQgMTM0LjM5MjYwOSA5MS40Mjk2MzggOTEuNDI5NjM4IDAgMCAxLTE0Ny4zMTk4OTggMTUuMDYwNTA1bC0yMDkuMjY4NDkgMTIwLjgyNTM1NGE5MS4zMDE2NDUgOTEuMzAxNjQ1IDAgMSAxLTE3Ny45NTI4NzkgMjguOTI2NDA5YzAtOC43NDYxODYgMS4yMzcyNjUtMTcuNDkyMzcxIDMuNzU0NDYtMjUuOTgyNTcxbC0yMTAuNTkxMDg0LTEyMS40NjUzMTlhOTEuMzAxNjQ1IDkxLjMwMTY0NSAwIDEgMS04Ny41NDcxODUtMTUxLjg0MjMxNWwwLjA0MjY2NC0yNDMuMTQzOTYxQTkxLjM0NDMwOSA5MS4zNDQzMDkgMCAwIDEgNjguNDYxNzI4IDI1NS45ODU5MjFhOTEuNDI5NjM4IDkxLjQyOTYzOCAwIDAgMSAxNDUuMzU3MzM5LTE3LjI3OTA1bDIxMC42NzY0MTItMTIxLjU5MzMxMkE5MS4yMTYzMTYgOTEuMjE2MzE2IDAgMCAxIDUxMiAwYTkxLjE3MzY1MiA5MS4xNzM2NTIgMCAwIDEgODcuNTA0NTIxIDExNy4zNjk1NDV6IG0tMjEuOTcyMTI1IDM3LjQxNjYwOGEzMy44MzI4MDYgMzMuODMyODA2IDAgMCAxLTIuNDc0NTMxIDIuNDc0NTMxbDI3NS42NTQxNzMgNDc3LjQxMzc0MmMxLjEwOTI3Mi0wLjM4Mzk3OSAyLjM4OTIwMi0wLjY4MjYyOSAzLjQ5ODQ3NC0wLjk4MTI3OVYzOTAuMjA3ODcyYTkxLjA4ODMyMyA5MS4wODgzMjMgMCAwIDEtNjYuNDcxMDExLTExMC40MTUyNjFsMC44MTA2MjItMy4wNzE4MzEtMjExLjAxNzcyNy0xMjEuOTM0NjI3eiBtLTEyOC42MzI5MjUgMi41MTcxOTVsLTIuNTU5ODYtMi41NTk4NTktMjExLjAxNzcyNyAxMjEuNjc4NjQxYTkxLjEzMDk4OCA5MS4xMzA5ODggMCAwIDEtNjIuMzMyNTcyIDExMi44NDcxMjdsLTMuMjQyNDg4IDAuODk1OTUxdjI0My41Mjc5MzlsMy41ODM4MDMgMC45ODEyNzkgMjc1LjY1NDE3Mi00NzcuNDEzNzQyLTAuMDg1MzI4IDAuMDQyNjY0eiBtODguNTcxMTI4IDIxLjYzMDgxMWMtMTYuNjM5MDg1IDQuNzc4NDA0LTM0LjI1OTQ0OSA0Ljc3ODQwNC01MC44NTU4NjkgMGwtMjc1LjYxMTUwOSA0NzcuMzcxMDc4YzEyLjU0MzMxIDEyLjA3NDAwMyAyMS40MTc0ODkgMjcuNTE4NDg2IDI1LjU5ODU5MyA0NC40MTM1NTdoNTUwLjgzOTAzN2M0LjEzODQzOS0xNi45ODAzOTkgMTMuMDk3OTQ2LTMyLjQ2NzU0OCAyNS43MjY1ODUtNDQuNTQxNTVMNTM3LjQ3MDU5OSAxNzguOTM0MTU5eiBtNDIuMDY3MDIgNjkyLjMxMzkyMmwyMDkuNjA5ODA1LTEyMS4wODEzNGE3NC41NzcyMzIgNzQuNTc3MjMyIDAgMCAxLTEuNjIxMjQ1LTYuMDU4MzM0SDIzNi40NzM4MjFsLTAuODk1OTUxIDMuNTQxMTM5IDIxMC43MTkwNzcgMTIxLjY3ODY0MWE5MC43MDQzNDUgOTAuNzA0MzQ1IDAgMCAxIDY1LjcwMzA1My0yNy44NTk4MDFjMjYuNzUwNTI5IDAgNTAuNzcwNTQxIDExLjQ3NjcwMiA2Ny41Mzc2MTkgMjkuNzc5Njk1eiIvPjwvc3ZnPg==;" parent="tDKQRB13UwWeRB4u-6H--125" vertex="1">
          <mxGeometry x="11.759999999999991" width="36.49" height="41" as="geometry" />
        </mxCell>
        <mxCell id="tDKQRB13UwWeRB4u-6H--64" value="utg.json" style="text;html=1;align=center;verticalAlign=middle;resizable=0;points=[];autosize=1;strokeColor=none;fillColor=none;fontSize=10;" parent="tDKQRB13UwWeRB4u-6H--125" vertex="1">
          <mxGeometry y="35" width="60" height="30" as="geometry" />
        </mxCell>
        <mxCell id="i6QBIst9yqrodUrIEMnb-1" value="&lt;b&gt;&lt;font style=&quot;font-size: 20px;&quot;&gt;①&lt;/font&gt;&lt;/b&gt;" style="text;html=1;align=center;verticalAlign=middle;resizable=0;points=[];autosize=1;strokeColor=none;fillColor=none;" parent="1" vertex="1">
          <mxGeometry x="218.57" y="906.5" width="38" height="36" as="geometry" />
        </mxCell>
        <mxCell id="i6QBIst9yqrodUrIEMnb-2" value="&lt;b&gt;&lt;font style=&quot;font-size: 20px;&quot;&gt;②&lt;/font&gt;&lt;/b&gt;" style="text;html=1;align=center;verticalAlign=middle;resizable=0;points=[];autosize=1;strokeColor=none;fillColor=none;" parent="1" vertex="1">
          <mxGeometry x="366" y="906.5" width="38" height="36" as="geometry" />
        </mxCell>
        <mxCell id="i6QBIst9yqrodUrIEMnb-3" value="&lt;b&gt;&lt;font style=&quot;font-size: 20px;&quot;&gt;③&lt;/font&gt;&lt;/b&gt;" style="text;html=1;align=center;verticalAlign=middle;resizable=0;points=[];autosize=1;strokeColor=none;fillColor=none;" parent="1" vertex="1">
          <mxGeometry x="518.81" y="906.5" width="38" height="36" as="geometry" />
        </mxCell>
        <mxCell id="hrunDnmg7fXbGhtsYe9F-1" value="Overview" style="text;html=1;align=center;verticalAlign=middle;resizable=0;points=[];autosize=1;strokeColor=none;fillColor=none;" parent="1" vertex="1">
          <mxGeometry x="73.63" y="99" width="68" height="26" as="geometry" />
        </mxCell>
        <mxCell id="3ZV7JySMpAZy8-NSE8_D-2" value="" style="verticalLabelPosition=bottom;aspect=fixed;html=1;verticalAlign=top;strokeColor=none;fillColor=#000000;align=center;outlineConnect=0;pointerEvents=1;shape=mxgraph.citrix2.mobile;" vertex="1" parent="1">
          <mxGeometry x="238.37" y="120" width="25.255" height="50" as="geometry" />
        </mxCell>
        <mxCell id="3ZV7JySMpAZy8-NSE8_D-3" value="APP" style="text;html=1;align=center;verticalAlign=middle;resizable=0;points=[];autosize=1;strokeColor=none;fillColor=none;fontSize=10;" vertex="1" parent="1">
          <mxGeometry x="231" y="164" width="40" height="30" as="geometry" />
        </mxCell>
        <mxCell id="3ZV7JySMpAZy8-NSE8_D-4" value="" style="endArrow=classic;html=1;rounded=0;" edge="1" parent="1">
          <mxGeometry width="50" height="50" relative="1" as="geometry">
            <mxPoint x="277" y="145" as="sourcePoint" />
            <mxPoint x="317" y="145" as="targetPoint" />
          </mxGeometry>
        </mxCell>
        <mxCell id="3ZV7JySMpAZy8-NSE8_D-5" value="" style="group;" vertex="1" connectable="0" parent="1">
          <mxGeometry x="433" y="125" width="60" height="65" as="geometry" />
        </mxCell>
        <mxCell id="3ZV7JySMpAZy8-NSE8_D-6" value="" style="shape=image;verticalLabelPosition=bottom;labelBackgroundColor=default;verticalAlign=top;aspect=fixed;imageAspect=0;editableCssRules=.*;image=data:image/svg+xml,PHN2ZyB4bWxuczp4bGluaz0iaHR0cDovL3d3dy53My5vcmcvMTk5OS94bGluayIgeG1sbnM9Imh0dHA6Ly93d3cudzMub3JnLzIwMDAvc3ZnIiBoZWlnaHQ9IjE5OS45OTExOTA0MzM1MDIyIiB3aWR0aD0iMTc4LjAwMzYzMzAyMjMwODM1IiB2ZXJzaW9uPSIxLjEiIHZpZXdCb3g9IjU2LjI4ODIwODAwNzgxMjUgLTAuMDAwMTY4MzQ2NTIzNDIzNjc5MTcgOTExLjM3ODYwMTA3NDIxODggMTAyMy45NTQ4OTUwMTk1MzEyIiBjbGFzcz0iaWNvbiI+PHBhdGggZmlsbD0iIiBkPSJNNTk5LjUwNDUyMSAxMTcuMzY5NTQ1bDIxMC41NDg0MTkgMTIxLjU5MzMxMmE5MS40NzIzMDIgOTEuNDcyMzAyIDAgMCAxIDE0NS40NDI2NjggMTcuMDY1NzI4IDkxLjU1NzYzMSA5MS41NTc2MzEgMCAwIDEtNTcuNzY3NDkgMTM0LjQzNTI3M3YyNDMuMTQzOTZhOTAuOTYwMzMxIDkwLjk2MDMzMSAwIDAgMSA1Ny41MTE1MDQgMTM0LjM5MjYwOSA5MS40Mjk2MzggOTEuNDI5NjM4IDAgMCAxLTE0Ny4zMTk4OTggMTUuMDYwNTA1bC0yMDkuMjY4NDkgMTIwLjgyNTM1NGE5MS4zMDE2NDUgOTEuMzAxNjQ1IDAgMSAxLTE3Ny45NTI4NzkgMjguOTI2NDA5YzAtOC43NDYxODYgMS4yMzcyNjUtMTcuNDkyMzcxIDMuNzU0NDYtMjUuOTgyNTcxbC0yMTAuNTkxMDg0LTEyMS40NjUzMTlhOTEuMzAxNjQ1IDkxLjMwMTY0NSAwIDEgMS04Ny41NDcxODUtMTUxLjg0MjMxNWwwLjA0MjY2NC0yNDMuMTQzOTYxQTkxLjM0NDMwOSA5MS4zNDQzMDkgMCAwIDEgNjguNDYxNzI4IDI1NS45ODU5MjFhOTEuNDI5NjM4IDkxLjQyOTYzOCAwIDAgMSAxNDUuMzU3MzM5LTE3LjI3OTA1bDIxMC42NzY0MTItMTIxLjU5MzMxMkE5MS4yMTYzMTYgOTEuMjE2MzE2IDAgMCAxIDUxMiAwYTkxLjE3MzY1MiA5MS4xNzM2NTIgMCAwIDEgODcuNTA0NTIxIDExNy4zNjk1NDV6IG0tMjEuOTcyMTI1IDM3LjQxNjYwOGEzMy44MzI4MDYgMzMuODMyODA2IDAgMCAxLTIuNDc0NTMxIDIuNDc0NTMxbDI3NS42NTQxNzMgNDc3LjQxMzc0MmMxLjEwOTI3Mi0wLjM4Mzk3OSAyLjM4OTIwMi0wLjY4MjYyOSAzLjQ5ODQ3NC0wLjk4MTI3OVYzOTAuMjA3ODcyYTkxLjA4ODMyMyA5MS4wODgzMjMgMCAwIDEtNjYuNDcxMDExLTExMC40MTUyNjFsMC44MTA2MjItMy4wNzE4MzEtMjExLjAxNzcyNy0xMjEuOTM0NjI3eiBtLTEyOC42MzI5MjUgMi41MTcxOTVsLTIuNTU5ODYtMi41NTk4NTktMjExLjAxNzcyNyAxMjEuNjc4NjQxYTkxLjEzMDk4OCA5MS4xMzA5ODggMCAwIDEtNjIuMzMyNTcyIDExMi44NDcxMjdsLTMuMjQyNDg4IDAuODk1OTUxdjI0My41Mjc5MzlsMy41ODM4MDMgMC45ODEyNzkgMjc1LjY1NDE3Mi00NzcuNDEzNzQyLTAuMDg1MzI4IDAuMDQyNjY0eiBtODguNTcxMTI4IDIxLjYzMDgxMWMtMTYuNjM5MDg1IDQuNzc4NDA0LTM0LjI1OTQ0OSA0Ljc3ODQwNC01MC44NTU4NjkgMGwtMjc1LjYxMTUwOSA0NzcuMzcxMDc4YzEyLjU0MzMxIDEyLjA3NDAwMyAyMS40MTc0ODkgMjcuNTE4NDg2IDI1LjU5ODU5MyA0NC40MTM1NTdoNTUwLjgzOTAzN2M0LjEzODQzOS0xNi45ODAzOTkgMTMuMDk3OTQ2LTMyLjQ2NzU0OCAyNS43MjY1ODUtNDQuNTQxNTVMNTM3LjQ3MDU5OSAxNzguOTM0MTU5eiBtNDIuMDY3MDIgNjkyLjMxMzkyMmwyMDkuNjA5ODA1LTEyMS4wODEzNGE3NC41NzcyMzIgNzQuNTc3MjMyIDAgMCAxLTEuNjIxMjQ1LTYuMDU4MzM0SDIzNi40NzM4MjFsLTAuODk1OTUxIDMuNTQxMTM5IDIxMC43MTkwNzcgMTIxLjY3ODY0MWE5MC43MDQzNDUgOTAuNzA0MzQ1IDAgMCAxIDY1LjcwMzA1My0yNy44NTk4MDFjMjYuNzUwNTI5IDAgNTAuNzcwNTQxIDExLjQ3NjcwMiA2Ny41Mzc2MTkgMjkuNzc5Njk1eiIvPjwvc3ZnPg==;" vertex="1" parent="3ZV7JySMpAZy8-NSE8_D-5">
          <mxGeometry x="11.759999999999991" width="36.49" height="41" as="geometry" />
        </mxCell>
        <mxCell id="3ZV7JySMpAZy8-NSE8_D-7" value="UTG" style="text;html=1;align=center;verticalAlign=middle;resizable=0;points=[];autosize=1;strokeColor=none;fillColor=none;fontSize=10;" vertex="1" parent="3ZV7JySMpAZy8-NSE8_D-5">
          <mxGeometry x="10" y="35" width="40" height="30" as="geometry" />
        </mxCell>
        <mxCell id="3ZV7JySMpAZy8-NSE8_D-8" value="" style="endArrow=classic;html=1;rounded=0;" edge="1" parent="1">
          <mxGeometry width="50" height="50" relative="1" as="geometry">
            <mxPoint x="386" y="147.16" as="sourcePoint" />
            <mxPoint x="426" y="147.16" as="targetPoint" />
          </mxGeometry>
        </mxCell>
        <mxCell id="3ZV7JySMpAZy8-NSE8_D-9" value="" style="shape=image;verticalLabelPosition=bottom;labelBackgroundColor=default;verticalAlign=top;aspect=fixed;imageAspect=0;editableCssRules=.*;image=data:image/svg+xml,PHN2ZyB4bWxuczp4bGluaz0iaHR0cDovL3d3dy53My5vcmcvMTk5OS94bGluayIgeG1sbnM9Imh0dHA6Ly93d3cudzMub3JnLzIwMDAvc3ZnIiBoZWlnaHQ9IjE2Ni42NjY2NjI2OTMwMjM2OCIgd2lkdGg9IjE4My4zMzMzMTM0NjUxMTg0IiB2ZXJzaW9uPSIxLjEiIHZpZXdCb3g9IjQyLjY2NjY3OTM4MjMyNDIyIDg1LjMzMzMzNTg3NjQ2NDg0IDkzOC42NjY1NjQ5NDE0MDYyIDg1My4zMzMzMTI5ODgyODEyIiBjbGFzcz0iaWNvbiI+PHBhdGggZD0iTTM4NCA2NDBhNDIuNjY2NjY3IDQyLjY2NjY2NyAwIDEgMCA0Mi42NjY2NjcgNDIuNjY2NjY3IDQyLjY2NjY2NyA0Mi42NjY2NjcgMCAwIDAtNDIuNjY2NjY3LTQyLjY2NjY2N3ogbS0yOTguNjY2NjY3LTQyLjY2NjY2N2E0Mi42NjY2NjcgNDIuNjY2NjY3IDAgMCAwLTQyLjY2NjY2NiA0Mi42NjY2Njd2ODUuMzMzMzMzYTQyLjY2NjY2NyA0Mi42NjY2NjcgMCAwIDAgODUuMzMzMzMzIDB2LTg1LjMzMzMzM2E0Mi42NjY2NjcgNDIuNjY2NjY3IDAgMCAwLTQyLjY2NjY2Ny00Mi42NjY2Njd6IG04NTMuMzMzMzM0IDBhNDIuNjY2NjY3IDQyLjY2NjY2NyAwIDAgMC00Mi42NjY2NjcgNDIuNjY2NjY3djg1LjMzMzMzM2E0Mi42NjY2NjcgNDIuNjY2NjY3IDAgMCAwIDg1LjMzMzMzMyAwdi04NS4zMzMzMzNhNDIuNjY2NjY3IDQyLjY2NjY2NyAwIDAgMC00Mi42NjY2NjYtNDIuNjY2NjY3eiBtLTIxMy4zMzMzMzQtMjk4LjY2NjY2NmgtMTcwLjY2NjY2NlYyNDQuMDUzMzMzQTg1LjMzMzMzMyA4NS4zMzMzMzMgMCAwIDAgNTk3LjMzMzMzMyAxNzAuNjY2NjY3YTg1LjMzMzMzMyA4NS4zMzMzMzMgMCAwIDAtMTcwLjY2NjY2NiAwIDg1LjMzMzMzMyA4NS4zMzMzMzMgMCAwIDAgNDIuNjY2NjY2IDczLjM4NjY2NlYyOTguNjY2NjY3SDI5OC42NjY2NjdhMTI4IDEyOCAwIDAgMC0xMjggMTI4djM4NGExMjggMTI4IDAgMCAwIDEyOCAxMjhoNDI2LjY2NjY2NmExMjggMTI4IDAgMCAwIDEyOC0xMjh2LTM4NGExMjggMTI4IDAgMCAwLTEyOC0xMjh6IG0tMTM5Ljk0NjY2NiA4NS4zMzMzMzNsLTIxLjMzMzMzNCA4NS4zMzMzMzNoLTEwNC4xMDY2NjZsLTIxLjMzMzMzNC04NS4zMzMzMzN6TTc2OCA4MTAuNjY2NjY3YTQyLjY2NjY2NyA0Mi42NjY2NjcgMCAwIDEtNDIuNjY2NjY3IDQyLjY2NjY2NkgyOTguNjY2NjY3YTQyLjY2NjY2NyA0Mi42NjY2NjcgMCAwIDEtNDIuNjY2NjY3LTQyLjY2NjY2NnYtMzg0YTQyLjY2NjY2NyA0Mi42NjY2NjcgMCAwIDEgNDIuNjY2NjY3LTQyLjY2NjY2N2g1Mi4wNTMzMzNMMzg0IDUyMi4yNGE0Mi42NjY2NjcgNDIuNjY2NjY3IDAgMCAwIDQyLjY2NjY2NyAzMi40MjY2NjdoMTcwLjY2NjY2NmE0Mi42NjY2NjcgNDIuNjY2NjY3IDAgMCAwIDQyLjY2NjY2Ny0zMi40MjY2NjdMNjczLjI4IDM4NEg3MjUuMzMzMzMzYTQyLjY2NjY2NyA0Mi42NjY2NjcgMCAwIDEgNDIuNjY2NjY3IDQyLjY2NjY2N3ogbS0xMjgtMTcwLjY2NjY2N2E0Mi42NjY2NjcgNDIuNjY2NjY3IDAgMSAwIDQyLjY2NjY2NyA0Mi42NjY2NjcgNDIuNjY2NjY3IDQyLjY2NjY2NyAwIDAgMC00Mi42NjY2NjctNDIuNjY2NjY3eiIvPjwvc3ZnPg==;" vertex="1" parent="1">
          <mxGeometry x="590" y="9.5" width="43.83" height="40" as="geometry" />
        </mxCell>
        <mxCell id="3ZV7JySMpAZy8-NSE8_D-10" value="" style="shape=image;verticalLabelPosition=bottom;labelBackgroundColor=default;verticalAlign=top;aspect=fixed;imageAspect=0;editableCssRules=.*;image=data:image/svg+xml,PHN2ZyB4bWxuczp4bGluaz0iaHR0cDovL3d3dy53My5vcmcvMTk5OS94bGluayIgeG1sbnM9Imh0dHA6Ly93d3cudzMub3JnLzIwMDAvc3ZnIiBoZWlnaHQ9IjE2Ni42NjY2NjI2OTMwMjM2OCIgd2lkdGg9IjE4My4zMzMzMTM0NjUxMTg0IiB2ZXJzaW9uPSIxLjEiIHZpZXdCb3g9IjQyLjY2NjY3OTM4MjMyNDIyIDg1LjMzMzMzNTg3NjQ2NDg0IDkzOC42NjY1NjQ5NDE0MDYyIDg1My4zMzMzMTI5ODgyODEyIiBjbGFzcz0iaWNvbiI+PHBhdGggZD0iTTM4NCA2NDBhNDIuNjY2NjY3IDQyLjY2NjY2NyAwIDEgMCA0Mi42NjY2NjcgNDIuNjY2NjY3IDQyLjY2NjY2NyA0Mi42NjY2NjcgMCAwIDAtNDIuNjY2NjY3LTQyLjY2NjY2N3ogbS0yOTguNjY2NjY3LTQyLjY2NjY2N2E0Mi42NjY2NjcgNDIuNjY2NjY3IDAgMCAwLTQyLjY2NjY2NiA0Mi42NjY2Njd2ODUuMzMzMzMzYTQyLjY2NjY2NyA0Mi42NjY2NjcgMCAwIDAgODUuMzMzMzMzIDB2LTg1LjMzMzMzM2E0Mi42NjY2NjcgNDIuNjY2NjY3IDAgMCAwLTQyLjY2NjY2Ny00Mi42NjY2Njd6IG04NTMuMzMzMzM0IDBhNDIuNjY2NjY3IDQyLjY2NjY2NyAwIDAgMC00Mi42NjY2NjcgNDIuNjY2NjY3djg1LjMzMzMzM2E0Mi42NjY2NjcgNDIuNjY2NjY3IDAgMCAwIDg1LjMzMzMzMyAwdi04NS4zMzMzMzNhNDIuNjY2NjY3IDQyLjY2NjY2NyAwIDAgMC00Mi42NjY2NjYtNDIuNjY2NjY3eiBtLTIxMy4zMzMzMzQtMjk4LjY2NjY2NmgtMTcwLjY2NjY2NlYyNDQuMDUzMzMzQTg1LjMzMzMzMyA4NS4zMzMzMzMgMCAwIDAgNTk3LjMzMzMzMyAxNzAuNjY2NjY3YTg1LjMzMzMzMyA4NS4zMzMzMzMgMCAwIDAtMTcwLjY2NjY2NiAwIDg1LjMzMzMzMyA4NS4zMzMzMzMgMCAwIDAgNDIuNjY2NjY2IDczLjM4NjY2NlYyOTguNjY2NjY3SDI5OC42NjY2NjdhMTI4IDEyOCAwIDAgMC0xMjggMTI4djM4NGExMjggMTI4IDAgMCAwIDEyOCAxMjhoNDI2LjY2NjY2NmExMjggMTI4IDAgMCAwIDEyOC0xMjh2LTM4NGExMjggMTI4IDAgMCAwLTEyOC0xMjh6IG0tMTM5Ljk0NjY2NiA4NS4zMzMzMzNsLTIxLjMzMzMzNCA4NS4zMzMzMzNoLTEwNC4xMDY2NjZsLTIxLjMzMzMzNC04NS4zMzMzMzN6TTc2OCA4MTAuNjY2NjY3YTQyLjY2NjY2NyA0Mi42NjY2NjcgMCAwIDEtNDIuNjY2NjY3IDQyLjY2NjY2NkgyOTguNjY2NjY3YTQyLjY2NjY2NyA0Mi42NjY2NjcgMCAwIDEtNDIuNjY2NjY3LTQyLjY2NjY2NnYtMzg0YTQyLjY2NjY2NyA0Mi42NjY2NjcgMCAwIDEgNDIuNjY2NjY3LTQyLjY2NjY2N2g1Mi4wNTMzMzNMMzg0IDUyMi4yNGE0Mi42NjY2NjcgNDIuNjY2NjY3IDAgMCAwIDQyLjY2NjY2NyAzMi40MjY2NjdoMTcwLjY2NjY2NmE0Mi42NjY2NjcgNDIuNjY2NjY3IDAgMCAwIDQyLjY2NjY2Ny0zMi40MjY2NjdMNjczLjI4IDM4NEg3MjUuMzMzMzMzYTQyLjY2NjY2NyA0Mi42NjY2NjcgMCAwIDEgNDIuNjY2NjY3IDQyLjY2NjY2N3ogbS0xMjgtMTcwLjY2NjY2N2E0Mi42NjY2NjcgNDIuNjY2NjY3IDAgMSAwIDQyLjY2NjY2NyA0Mi42NjY2NjcgNDIuNjY2NjY3IDQyLjY2NjY2NyAwIDAgMC00Mi42NjY2NjctNDIuNjY2NjY3eiIvPjwvc3ZnPg==;" vertex="1" parent="1">
          <mxGeometry x="328.29" y="122.5" width="43.83" height="40" as="geometry" />
        </mxCell>
        <mxCell id="3ZV7JySMpAZy8-NSE8_D-11" value="Explorer" style="text;html=1;align=center;verticalAlign=middle;resizable=0;points=[];autosize=1;strokeColor=none;fillColor=none;fontSize=10;" vertex="1" parent="1">
          <mxGeometry x="320.1" y="162.5" width="60" height="30" as="geometry" />
        </mxCell>
        <mxCell id="3ZV7JySMpAZy8-NSE8_D-12" value="" style="shape=image;verticalLabelPosition=bottom;labelBackgroundColor=default;verticalAlign=top;aspect=fixed;imageAspect=0;editableCssRules=.*;image=data:image/svg+xml,PHN2ZyB4bWxuczp4bGluaz0iaHR0cDovL3d3dy53My5vcmcvMTk5OS94bGluayIgeG1sbnM9Imh0dHA6Ly93d3cudzMub3JnLzIwMDAvc3ZnIiBoZWlnaHQ9IjE2Ni42NjY2NjI2OTMwMjM2OCIgd2lkdGg9IjE4My4zMzMzMTM0NjUxMTg0IiB2ZXJzaW9uPSIxLjEiIHZpZXdCb3g9IjQyLjY2NjY3OTM4MjMyNDIyIDg1LjMzMzMzNTg3NjQ2NDg0IDkzOC42NjY1NjQ5NDE0MDYyIDg1My4zMzMzMTI5ODgyODEyIiBjbGFzcz0iaWNvbiI+PHBhdGggZD0iTTM4NCA2NDBhNDIuNjY2NjY3IDQyLjY2NjY2NyAwIDEgMCA0Mi42NjY2NjcgNDIuNjY2NjY3IDQyLjY2NjY2NyA0Mi42NjY2NjcgMCAwIDAtNDIuNjY2NjY3LTQyLjY2NjY2N3ogbS0yOTguNjY2NjY3LTQyLjY2NjY2N2E0Mi42NjY2NjcgNDIuNjY2NjY3IDAgMCAwLTQyLjY2NjY2NiA0Mi42NjY2Njd2ODUuMzMzMzMzYTQyLjY2NjY2NyA0Mi42NjY2NjcgMCAwIDAgODUuMzMzMzMzIDB2LTg1LjMzMzMzM2E0Mi42NjY2NjcgNDIuNjY2NjY3IDAgMCAwLTQyLjY2NjY2Ny00Mi42NjY2Njd6IG04NTMuMzMzMzM0IDBhNDIuNjY2NjY3IDQyLjY2NjY2NyAwIDAgMC00Mi42NjY2NjcgNDIuNjY2NjY3djg1LjMzMzMzM2E0Mi42NjY2NjcgNDIuNjY2NjY3IDAgMCAwIDg1LjMzMzMzMyAwdi04NS4zMzMzMzNhNDIuNjY2NjY3IDQyLjY2NjY2NyAwIDAgMC00Mi42NjY2NjYtNDIuNjY2NjY3eiBtLTIxMy4zMzMzMzQtMjk4LjY2NjY2NmgtMTcwLjY2NjY2NlYyNDQuMDUzMzMzQTg1LjMzMzMzMyA4NS4zMzMzMzMgMCAwIDAgNTk3LjMzMzMzMyAxNzAuNjY2NjY3YTg1LjMzMzMzMyA4NS4zMzMzMzMgMCAwIDAtMTcwLjY2NjY2NiAwIDg1LjMzMzMzMyA4NS4zMzMzMzMgMCAwIDAgNDIuNjY2NjY2IDczLjM4NjY2NlYyOTguNjY2NjY3SDI5OC42NjY2NjdhMTI4IDEyOCAwIDAgMC0xMjggMTI4djM4NGExMjggMTI4IDAgMCAwIDEyOCAxMjhoNDI2LjY2NjY2NmExMjggMTI4IDAgMCAwIDEyOC0xMjh2LTM4NGExMjggMTI4IDAgMCAwLTEyOC0xMjh6IG0tMTM5Ljk0NjY2NiA4NS4zMzMzMzNsLTIxLjMzMzMzNCA4NS4zMzMzMzNoLTEwNC4xMDY2NjZsLTIxLjMzMzMzNC04NS4zMzMzMzN6TTc2OCA4MTAuNjY2NjY3YTQyLjY2NjY2NyA0Mi42NjY2NjcgMCAwIDEtNDIuNjY2NjY3IDQyLjY2NjY2NkgyOTguNjY2NjY3YTQyLjY2NjY2NyA0Mi42NjY2NjcgMCAwIDEtNDIuNjY2NjY3LTQyLjY2NjY2NnYtMzg0YTQyLjY2NjY2NyA0Mi42NjY2NjcgMCAwIDEgNDIuNjY2NjY3LTQyLjY2NjY2N2g1Mi4wNTMzMzNMMzg0IDUyMi4yNGE0Mi42NjY2NjcgNDIuNjY2NjY3IDAgMCAwIDQyLjY2NjY2NyAzMi40MjY2NjdoMTcwLjY2NjY2NmE0Mi42NjY2NjcgNDIuNjY2NjY3IDAgMCAwIDQyLjY2NjY2Ny0zMi40MjY2NjdMNjczLjI4IDM4NEg3MjUuMzMzMzMzYTQyLjY2NjY2NyA0Mi42NjY2NjcgMCAwIDEgNDIuNjY2NjY3IDQyLjY2NjY2N3ogbS0xMjgtMTcwLjY2NjY2N2E0Mi42NjY2NjcgNDIuNjY2NjY3IDAgMSAwIDQyLjY2NjY2NyA0Mi42NjY2NjcgNDIuNjY2NjY3IDQyLjY2NjY2NyAwIDAgMC00Mi42NjY2NjctNDIuNjY2NjY3eiIvPjwvc3ZnPg==;" vertex="1" parent="1">
          <mxGeometry x="328.18999999999994" y="248" width="43.83" height="40" as="geometry" />
        </mxCell>
        <mxCell id="3ZV7JySMpAZy8-NSE8_D-13" value="Agent" style="text;html=1;align=center;verticalAlign=middle;resizable=0;points=[];autosize=1;strokeColor=none;fillColor=none;fontSize=10;" vertex="1" parent="1">
          <mxGeometry x="325" y="288" width="50" height="30" as="geometry" />
        </mxCell>
        <mxCell id="ePmuyN2vcvYfpdvklpRd-1" value="" style="shape=image;verticalLabelPosition=bottom;labelBackgroundColor=default;verticalAlign=top;aspect=fixed;imageAspect=0;editableCssRules=.*;image=data:image/svg+xml,PHN2ZyB4bWxuczp4bGluaz0iaHR0cDovL3d3dy53My5vcmcvMTk5OS94bGluayIgeG1sbnM9Imh0dHA6Ly93d3cudzMub3JnLzIwMDAvc3ZnIiBoZWlnaHQ9IjE4My4zMzMzMjUzODYwNDczNiIgd2lkdGg9IjE1MCIgdmVyc2lvbj0iMS4xIiB2aWV3Qm94PSIxMjggNDIuNjY2NjY3OTM4MjMyNDIgNzY4IDkzOC42NjY2MjU5NzY1NjI1IiBjbGFzcz0iaWNvbiI+PHBhdGggZmlsbD0iIzAwMDAwMCIgZD0iTTI5OC42NjY2NjcgNDIuNjY2NjY3aDQyNi42NjY2NjZ2ODUuMzMzMzMzaDE3MC42NjY2Njd2ODUzLjMzMzMzM0gxMjhWMTI4aDE3MC42NjY2NjdWNDIuNjY2NjY3eiBtMCAxNzAuNjY2NjY2SDIxMy4zMzMzMzN2NjgyLjY2NjY2N2g1OTcuMzMzMzM0VjIxMy4zMzMzMzNoLTg1LjMzMzMzNHY4NS4zMzMzMzRIMjk4LjY2NjY2N1YyMTMuMzMzMzMzeiBtMzQxLjMzMzMzMy04NS4zMzMzMzNIMzg0djg1LjMzMzMzM2gyNTZWMTI4eiBtLTI1NiAzNDEuMzMzMzMzaDI1NnY4NS4zMzMzMzRIMzg0di04NS4zMzMzMzR6IG0wIDE3MC42NjY2NjdoMjU2djg1LjMzMzMzM0gzODR2LTg1LjMzMzMzM3oiLz48L3N2Zz4=;" vertex="1" parent="1">
          <mxGeometry x="237.12" y="253" width="30.33" height="37" as="geometry" />
        </mxCell>
        <mxCell id="ePmuyN2vcvYfpdvklpRd-2" value="Query" style="text;html=1;align=center;verticalAlign=middle;resizable=0;points=[];autosize=1;strokeColor=none;fillColor=none;" vertex="1" parent="1">
          <mxGeometry x="222.12" y="288" width="60" height="30" as="geometry" />
        </mxCell>
        <mxCell id="ePmuyN2vcvYfpdvklpRd-3" value="" style="endArrow=classic;html=1;rounded=0;" edge="1" parent="1">
          <mxGeometry width="50" height="50" relative="1" as="geometry">
            <mxPoint x="462.62" y="190" as="sourcePoint" />
            <mxPoint x="350" y="240" as="targetPoint" />
            <Array as="points">
              <mxPoint x="462.62" y="210" />
              <mxPoint x="350" y="210" />
            </Array>
          </mxGeometry>
        </mxCell>
        <mxCell id="ePmuyN2vcvYfpdvklpRd-4" value="" style="endArrow=classic;html=1;rounded=0;" edge="1" parent="1">
          <mxGeometry width="50" height="50" relative="1" as="geometry">
            <mxPoint x="278" y="276" as="sourcePoint" />
            <mxPoint x="318" y="276" as="targetPoint" />
          </mxGeometry>
        </mxCell>
        <mxCell id="ePmuyN2vcvYfpdvklpRd-5" value="" style="shape=image;verticalLabelPosition=bottom;labelBackgroundColor=default;verticalAlign=top;aspect=fixed;imageAspect=0;editableCssRules=.*;image=data:image/svg+xml,PHN2ZyB4bWxuczp4bGluaz0iaHR0cDovL3d3dy53My5vcmcvMTk5OS94bGluayIgeG1sbnM9Imh0dHA6Ly93d3cudzMub3JnLzIwMDAvc3ZnIiBoZWlnaHQ9IjE5OC42NjY2Nzk4NTkxNjEzOCIgd2lkdGg9IjE5My43MzU5OTI5MDg0Nzc3OCIgdmVyc2lvbj0iMS4xIiB2aWV3Qm94PSIxNi4wMzU4NDI4OTU1MDc4MTIgMy40MTMzMzI5MzkxNDc5NDkgOTkxLjkyODI4MzY5MTQwNjIgMTAxNy4xNzM0MDA4Nzg5MDYyIiBjbGFzcz0iaWNvbiI+PHBhdGggZmlsbD0iIzA0MDAwMCIgZD0iTTkxOC4wMTk0MTMgMTAyMC41ODY2NjdIMTA1Ljg2MTEyYy00OS41MjA2NCAwLTg5LjgyNTI4LTM5LjU5NDY2Ny04OS44MjUyOC04OC4xNTI3NDdWMTM1LjcwMzg5M2MwLjExOTQ2Ny00OC41NjQ5MDcgNDAuMTg1MTczLTg4LjAzMzI4IDg5LjgyNTI4LTg4LjAzMzI4aDE0OC4zMTYxNkMyNjkuODQ3ODkzIDIxLjM1NzIyNyAyOTguNDMxMTQ3IDMuNDEzMzMzIDMzMS41NjQzNzMgMy40MTMzMzNoMzYwLjk4NzMwN2MzMy4xMjY0IDAgNjEuNzE5ODkzIDE3Ljk0Mzg5MyA3Ny4zODcwOTMgNDQuMjU3MjhoMTQ3LjU5OTM2YzQ5Ljc1OTU3My0wLjExOTQ2NyA5MC4xODcwOTMgMzkuMzQ4OTA3IDkwLjQyNjAyNyA4OC4wMzMyOHY3OTYuNzMwMDI3Yy0wLjIzNTUyIDQ4LjY4MDk2LTQwLjQyNDEwNyA4OC4wMzMyOC04OS45NDQ3NDcgODguMTUyNzQ3eiBtLTIyNS44MjYxMzMtOTI4LjMwNzJsLTM2MC44NjQ0MjctMC40Nzc4NjcgMC4xMTk0NjcgMC40Nzc4Njd2ODcuNTU1NDEzbDM2MC44NjQ0MjcgMC40ODQ2OTMtMC4xMTk0NjctODguMDQwMTA2eiBtMjI1LjQ2NzczMyA0My40MjQ0MjZsLTEzNS4yODA2NCAwLjM1NDk4N3Y0My43NzZjMC4xMTk0NjcgNDguOTE5ODkzLTQwLjA2NTcwNyA4OC42MzA2MTMtODkuOTQ4MTYgODguODY5NTQ3SDMzMS40NDgzMmMtNDkuNjM2NjkzIDAtODkuOTUxNTczLTM5Ljk0OTY1My04OS45NTE1NzMtODguODY5NTQ3VjEzNi4wNTg4OEgxMDUuODU3NzA3bDAuMzU4NCA3OTYuMzc1MDQgODExLjgwMzMwNi0wLjM1ODQtMC4zNTg0LTc5Ni4zNzE2Mjd6TTM2MS40NzIgNTUyLjU1MDRsODcuNTUyIDk2LjE2NzI1MyAyMTMuNzQ5NzYtMjI5LjI5NzQ5M2MxNi43NDU4MTMtMTguMDU5OTQ3IDQ1LjMyNTY1My0xOS4yNjE0NCA2My43NTQyNC0yLjc1NDU2YTQzLjYwNTMzMyA0My42MDUzMzMgMCAwIDEgMi44NjcyIDYyLjQ0MDEwN2wtMjQ3LjQ2NjY2NyAyNjUuNDE3Mzg2YTQ1Ljk3NDE4NyA0NS45NzQxODcgMCAwIDEtMzMuMjUyNjkzIDE0LjM1NjQ4aC0wLjM1ODRjLTEyLjc5NjU4Ny0wLjEyMjg4LTI0Ljg3OTc4Ny01LjUwNTcwNy0zMy4zNjUzMzMtMTQuODM3NzZsLTEyMC42OTU0NjctMTMyLjUyOTQ5M2MtMTYuNjI2MzQ3LTE4LjE3Ni0xNC45NTA0LTQ2LjE2NTMzMyAzLjU4NzQxMy02Mi40MzMyOCAxOC41MzQ0LTE2LjI2Nzk0NyA0Ny4xMjEwNjctMTQuNzExNDY3IDYzLjYyNzk0NyAzLjQ3MTM2eiIvPjwvc3ZnPg==;" vertex="1" parent="1">
          <mxGeometry x="443.99" y="251" width="38.02" height="39" as="geometry" />
        </mxCell>
        <mxCell id="ePmuyN2vcvYfpdvklpRd-7" value="Finish" style="text;html=1;align=center;verticalAlign=middle;resizable=0;points=[];autosize=1;strokeColor=none;fillColor=none;fontSize=10;" vertex="1" parent="1">
          <mxGeometry x="438" y="288" width="50" height="30" as="geometry" />
        </mxCell>
        <mxCell id="ePmuyN2vcvYfpdvklpRd-9" value="" style="endArrow=classic;html=1;rounded=0;" edge="1" parent="1">
          <mxGeometry width="50" height="50" relative="1" as="geometry">
            <mxPoint x="390" y="275" as="sourcePoint" />
            <mxPoint x="430" y="275" as="targetPoint" />
          </mxGeometry>
        </mxCell>
      </root>
    </mxGraphModel>
  </diagram>
  <diagram id="l86LmxV9MV5FQ9OyzL9r" name="第 2 页">
    <mxGraphModel dx="593" dy="346" grid="0" gridSize="10" guides="1" tooltips="1" connect="1" arrows="1" fold="1" page="1" pageScale="1" pageWidth="827" pageHeight="1169" background="none" math="0" shadow="0">
      <root>
        <mxCell id="0" />
        <mxCell id="1" parent="0" />
        <mxCell id="tbTewXhnc4jtzLpSjDv9-1" value="" style="group;" parent="1" vertex="1" connectable="0">
          <mxGeometry x="285" y="300" width="60" height="65" as="geometry" />
        </mxCell>
        <mxCell id="tbTewXhnc4jtzLpSjDv9-2" value="" style="shape=image;verticalLabelPosition=bottom;labelBackgroundColor=default;verticalAlign=top;aspect=fixed;imageAspect=0;editableCssRules=.*;image=data:image/svg+xml,PHN2ZyB4bWxuczp4bGluaz0iaHR0cDovL3d3dy53My5vcmcvMTk5OS94bGluayIgeG1sbnM9Imh0dHA6Ly93d3cudzMub3JnLzIwMDAvc3ZnIiBoZWlnaHQ9IjE5OS45OTExOTA0MzM1MDIyIiB3aWR0aD0iMTc4LjAwMzYzMzAyMjMwODM1IiB2ZXJzaW9uPSIxLjEiIHZpZXdCb3g9IjU2LjI4ODIwODAwNzgxMjUgLTAuMDAwMTY4MzQ2NTIzNDIzNjc5MTcgOTExLjM3ODYwMTA3NDIxODggMTAyMy45NTQ4OTUwMTk1MzEyIiBjbGFzcz0iaWNvbiI+PHBhdGggZmlsbD0iIiBkPSJNNTk5LjUwNDUyMSAxMTcuMzY5NTQ1bDIxMC41NDg0MTkgMTIxLjU5MzMxMmE5MS40NzIzMDIgOTEuNDcyMzAyIDAgMCAxIDE0NS40NDI2NjggMTcuMDY1NzI4IDkxLjU1NzYzMSA5MS41NTc2MzEgMCAwIDEtNTcuNzY3NDkgMTM0LjQzNTI3M3YyNDMuMTQzOTZhOTAuOTYwMzMxIDkwLjk2MDMzMSAwIDAgMSA1Ny41MTE1MDQgMTM0LjM5MjYwOSA5MS40Mjk2MzggOTEuNDI5NjM4IDAgMCAxLTE0Ny4zMTk4OTggMTUuMDYwNTA1bC0yMDkuMjY4NDkgMTIwLjgyNTM1NGE5MS4zMDE2NDUgOTEuMzAxNjQ1IDAgMSAxLTE3Ny45NTI4NzkgMjguOTI2NDA5YzAtOC43NDYxODYgMS4yMzcyNjUtMTcuNDkyMzcxIDMuNzU0NDYtMjUuOTgyNTcxbC0yMTAuNTkxMDg0LTEyMS40NjUzMTlhOTEuMzAxNjQ1IDkxLjMwMTY0NSAwIDEgMS04Ny41NDcxODUtMTUxLjg0MjMxNWwwLjA0MjY2NC0yNDMuMTQzOTYxQTkxLjM0NDMwOSA5MS4zNDQzMDkgMCAwIDEgNjguNDYxNzI4IDI1NS45ODU5MjFhOTEuNDI5NjM4IDkxLjQyOTYzOCAwIDAgMSAxNDUuMzU3MzM5LTE3LjI3OTA1bDIxMC42NzY0MTItMTIxLjU5MzMxMkE5MS4yMTYzMTYgOTEuMjE2MzE2IDAgMCAxIDUxMiAwYTkxLjE3MzY1MiA5MS4xNzM2NTIgMCAwIDEgODcuNTA0NTIxIDExNy4zNjk1NDV6IG0tMjEuOTcyMTI1IDM3LjQxNjYwOGEzMy44MzI4MDYgMzMuODMyODA2IDAgMCAxLTIuNDc0NTMxIDIuNDc0NTMxbDI3NS42NTQxNzMgNDc3LjQxMzc0MmMxLjEwOTI3Mi0wLjM4Mzk3OSAyLjM4OTIwMi0wLjY4MjYyOSAzLjQ5ODQ3NC0wLjk4MTI3OVYzOTAuMjA3ODcyYTkxLjA4ODMyMyA5MS4wODgzMjMgMCAwIDEtNjYuNDcxMDExLTExMC40MTUyNjFsMC44MTA2MjItMy4wNzE4MzEtMjExLjAxNzcyNy0xMjEuOTM0NjI3eiBtLTEyOC42MzI5MjUgMi41MTcxOTVsLTIuNTU5ODYtMi41NTk4NTktMjExLjAxNzcyNyAxMjEuNjc4NjQxYTkxLjEzMDk4OCA5MS4xMzA5ODggMCAwIDEtNjIuMzMyNTcyIDExMi44NDcxMjdsLTMuMjQyNDg4IDAuODk1OTUxdjI0My41Mjc5MzlsMy41ODM4MDMgMC45ODEyNzkgMjc1LjY1NDE3Mi00NzcuNDEzNzQyLTAuMDg1MzI4IDAuMDQyNjY0eiBtODguNTcxMTI4IDIxLjYzMDgxMWMtMTYuNjM5MDg1IDQuNzc4NDA0LTM0LjI1OTQ0OSA0Ljc3ODQwNC01MC44NTU4NjkgMGwtMjc1LjYxMTUwOSA0NzcuMzcxMDc4YzEyLjU0MzMxIDEyLjA3NDAwMyAyMS40MTc0ODkgMjcuNTE4NDg2IDI1LjU5ODU5MyA0NC40MTM1NTdoNTUwLjgzOTAzN2M0LjEzODQzOS0xNi45ODAzOTkgMTMuMDk3OTQ2LTMyLjQ2NzU0OCAyNS43MjY1ODUtNDQuNTQxNTVMNTM3LjQ3MDU5OSAxNzguOTM0MTU5eiBtNDIuMDY3MDIgNjkyLjMxMzkyMmwyMDkuNjA5ODA1LTEyMS4wODEzNGE3NC41NzcyMzIgNzQuNTc3MjMyIDAgMCAxLTEuNjIxMjQ1LTYuMDU4MzM0SDIzNi40NzM4MjFsLTAuODk1OTUxIDMuNTQxMTM5IDIxMC43MTkwNzcgMTIxLjY3ODY0MWE5MC43MDQzNDUgOTAuNzA0MzQ1IDAgMCAxIDY1LjcwMzA1My0yNy44NTk4MDFjMjYuNzUwNTI5IDAgNTAuNzcwNTQxIDExLjQ3NjcwMiA2Ny41Mzc2MTkgMjkuNzc5Njk1eiIvPjwvc3ZnPg==;" parent="tbTewXhnc4jtzLpSjDv9-1" vertex="1">
          <mxGeometry x="11.759999999999991" width="36.49" height="41" as="geometry" />
        </mxCell>
        <mxCell id="tbTewXhnc4jtzLpSjDv9-3" value="utg.json" style="text;html=1;align=center;verticalAlign=middle;resizable=0;points=[];autosize=1;strokeColor=none;fillColor=none;fontSize=10;" parent="tbTewXhnc4jtzLpSjDv9-1" vertex="1">
          <mxGeometry y="35" width="60" height="30" as="geometry" />
        </mxCell>
        <mxCell id="tbTewXhnc4jtzLpSjDv9-5" value="" style="group" parent="1" vertex="1" connectable="0">
          <mxGeometry x="280" y="180" width="70" height="64.5" as="geometry" />
        </mxCell>
        <mxCell id="em3ZcZTL43-8YEnGI7oN-1" value="" style="shape=datastore;whiteSpace=wrap;html=1;" parent="tbTewXhnc4jtzLpSjDv9-5" vertex="1">
          <mxGeometry x="15" width="40" height="40" as="geometry" />
        </mxCell>
        <mxCell id="tbTewXhnc4jtzLpSjDv9-4" value="database" style="text;html=1;align=center;verticalAlign=middle;resizable=0;points=[];autosize=1;strokeColor=none;fillColor=none;" parent="tbTewXhnc4jtzLpSjDv9-5" vertex="1">
          <mxGeometry y="34.5" width="70" height="30" as="geometry" />
        </mxCell>
        <mxCell id="tbTewXhnc4jtzLpSjDv9-7" value="" style="endArrow=classic;html=1;rounded=0;" parent="1" edge="1">
          <mxGeometry width="50" height="50" relative="1" as="geometry">
            <mxPoint x="314.8" y="284.5" as="sourcePoint" />
            <mxPoint x="314.8" y="244.5" as="targetPoint" />
          </mxGeometry>
        </mxCell>
        <mxCell id="tbTewXhnc4jtzLpSjDv9-8" value="embedding" style="text;html=1;align=center;verticalAlign=middle;resizable=0;points=[];autosize=1;strokeColor=none;fillColor=none;" parent="1" vertex="1">
          <mxGeometry x="312" y="255" width="80" height="30" as="geometry" />
        </mxCell>
        <mxCell id="tbTewXhnc4jtzLpSjDv9-11" value="embedding" style="text;html=1;align=center;verticalAlign=middle;resizable=0;points=[];autosize=1;strokeColor=none;fillColor=none;" parent="1" vertex="1">
          <mxGeometry x="185" y="200" width="80" height="30" as="geometry" />
        </mxCell>
        <mxCell id="tbTewXhnc4jtzLpSjDv9-13" value="利用相似度算法匹配当前页面，&lt;div&gt;然后搜最短路&lt;/div&gt;" style="text;html=1;align=center;verticalAlign=middle;resizable=0;points=[];autosize=1;strokeColor=none;fillColor=none;" parent="1" vertex="1">
          <mxGeometry x="305" y="50" width="190" height="40" as="geometry" />
        </mxCell>
        <mxCell id="46VNmxJxCsXHyFYzxC-6-2" value="" style="endArrow=none;html=1;rounded=0;startFill=0;" parent="1" edge="1">
          <mxGeometry width="50" height="50" relative="1" as="geometry">
            <mxPoint x="345" y="320" as="sourcePoint" />
            <mxPoint x="345" y="400" as="targetPoint" />
            <Array as="points">
              <mxPoint x="375" y="320" />
              <mxPoint x="375" y="400" />
            </Array>
          </mxGeometry>
        </mxCell>
        <mxCell id="FN2NQuV35iBUDwSxBcnR-1" value="" style="shape=image;html=1;verticalAlign=top;verticalLabelPosition=bottom;labelBackgroundColor=#ffffff;imageAspect=0;aspect=fixed;image=https://cdn4.iconfinder.com/data/icons/ionicons/512/icon-image-128.png;" parent="1" vertex="1">
          <mxGeometry x="295" y="379.5" width="40" height="40" as="geometry" />
        </mxCell>
        <mxCell id="FN2NQuV35iBUDwSxBcnR-2" value="current_layout.png" style="text;html=1;align=center;verticalAlign=middle;resizable=0;points=[];autosize=1;strokeColor=none;fillColor=none;" parent="1" vertex="1">
          <mxGeometry x="257" y="408.5" width="120" height="30" as="geometry" />
        </mxCell>
        <mxCell id="FN2NQuV35iBUDwSxBcnR-3" value="" style="endArrow=classic;html=1;rounded=0;" parent="1" edge="1">
          <mxGeometry width="50" height="50" relative="1" as="geometry">
            <mxPoint x="375" y="360" as="sourcePoint" />
            <mxPoint x="425" y="360" as="targetPoint" />
          </mxGeometry>
        </mxCell>
        <mxCell id="FN2NQuV35iBUDwSxBcnR-4" value="match" style="text;html=1;align=center;verticalAlign=middle;resizable=0;points=[];autosize=1;strokeColor=none;fillColor=none;" parent="1" vertex="1">
          <mxGeometry x="364" y="334" width="60" height="30" as="geometry" />
        </mxCell>
        <mxCell id="FN2NQuV35iBUDwSxBcnR-6" value="" style="shape=image;html=1;verticalAlign=top;verticalLabelPosition=bottom;labelBackgroundColor=#ffffff;imageAspect=0;aspect=fixed;image=https://cdn4.iconfinder.com/data/icons/ionicons/512/icon-image-128.png;" parent="1" vertex="1">
          <mxGeometry x="438" y="334" width="40" height="40" as="geometry" />
        </mxCell>
        <mxCell id="FN2NQuV35iBUDwSxBcnR-7" value="src_page" style="text;html=1;align=center;verticalAlign=middle;resizable=0;points=[];autosize=1;strokeColor=none;fillColor=none;" parent="1" vertex="1">
          <mxGeometry x="425" y="363" width="70" height="30" as="geometry" />
        </mxCell>
        <mxCell id="FN2NQuV35iBUDwSxBcnR-8" value="后续把布局文件进行embedding" style="text;html=1;align=center;verticalAlign=middle;resizable=0;points=[];autosize=1;strokeColor=none;fillColor=none;" parent="1" vertex="1">
          <mxGeometry x="305" y="107" width="190" height="30" as="geometry" />
        </mxCell>
        <mxCell id="FN2NQuV35iBUDwSxBcnR-9" value="" style="endArrow=classic;html=1;rounded=0;" parent="1" edge="1">
          <mxGeometry width="50" height="50" relative="1" as="geometry">
            <mxPoint x="355" y="200" as="sourcePoint" />
            <mxPoint x="425" y="200" as="targetPoint" />
          </mxGeometry>
        </mxCell>
        <mxCell id="FN2NQuV35iBUDwSxBcnR-11" value="" style="shape=image;html=1;verticalAlign=top;verticalLabelPosition=bottom;labelBackgroundColor=#ffffff;imageAspect=0;aspect=fixed;image=https://cdn4.iconfinder.com/data/icons/ionicons/512/icon-image-128.png;" parent="1" vertex="1">
          <mxGeometry x="436" y="170" width="40" height="40" as="geometry" />
        </mxCell>
        <mxCell id="FN2NQuV35iBUDwSxBcnR-12" value="dst_page" style="text;html=1;align=center;verticalAlign=middle;resizable=0;points=[];autosize=1;strokeColor=none;fillColor=none;" parent="1" vertex="1">
          <mxGeometry x="423" y="199" width="70" height="30" as="geometry" />
        </mxCell>
        <mxCell id="FN2NQuV35iBUDwSxBcnR-13" value="" style="endArrow=none;html=1;rounded=0;startFill=0;" parent="1" edge="1">
          <mxGeometry width="50" height="50" relative="1" as="geometry">
            <mxPoint x="485" y="200" as="sourcePoint" />
            <mxPoint x="485" y="360" as="targetPoint" />
            <Array as="points">
              <mxPoint x="515" y="200" />
              <mxPoint x="515" y="360" />
            </Array>
          </mxGeometry>
        </mxCell>
        <mxCell id="FN2NQuV35iBUDwSxBcnR-14" value="" style="endArrow=classic;html=1;rounded=0;" parent="1" edge="1">
          <mxGeometry width="50" height="50" relative="1" as="geometry">
            <mxPoint x="515" y="280" as="sourcePoint" />
            <mxPoint x="565" y="280" as="targetPoint" />
          </mxGeometry>
        </mxCell>
        <mxCell id="kNDEYStpznAM92TSU2Wr-1" value="" style="shape=image;html=1;verticalAlign=top;verticalLabelPosition=bottom;labelBackgroundColor=#ffffff;imageAspect=0;aspect=fixed;image=https://cdn1.iconfinder.com/data/icons/bootstrap-vol-3/16/images-128.png;spacing=1;" parent="1" vertex="1">
          <mxGeometry x="570" y="258" width="38" height="38" as="geometry" />
        </mxCell>
        <mxCell id="kNDEYStpznAM92TSU2Wr-2" value="path_chain" style="text;html=1;align=center;verticalAlign=middle;resizable=0;points=[];autosize=1;strokeColor=none;fillColor=none;" parent="1" vertex="1">
          <mxGeometry x="550" y="289" width="80" height="30" as="geometry" />
        </mxCell>
        <mxCell id="8ut4pLUDcl6fuEOZlXp4-1" value="" style="endArrow=classic;html=1;rounded=0;" parent="1" edge="1">
          <mxGeometry width="50" height="50" relative="1" as="geometry">
            <mxPoint x="185" y="200" as="sourcePoint" />
            <mxPoint x="265" y="200" as="targetPoint" />
          </mxGeometry>
        </mxCell>
        <mxCell id="pqr_1ZOwnX0gUC0iQEbz-1" value="检索流程图" style="text;html=1;align=center;verticalAlign=middle;resizable=0;points=[];autosize=1;strokeColor=none;fillColor=none;" parent="1" vertex="1">
          <mxGeometry x="185" y="98" width="80" height="30" as="geometry" />
        </mxCell>
        <mxCell id="9ryeLSO9UocPWWietXVp-1" value="" style="shape=image;verticalLabelPosition=bottom;labelBackgroundColor=default;verticalAlign=top;aspect=fixed;imageAspect=0;editableCssRules=.*;image=data:image/svg+xml,PHN2ZyB4bWxuczp4bGluaz0iaHR0cDovL3d3dy53My5vcmcvMTk5OS94bGluayIgeG1sbnM9Imh0dHA6Ly93d3cudzMub3JnLzIwMDAvc3ZnIiBoZWlnaHQ9IjE4My4zMzMzMjUzODYwNDczNiIgd2lkdGg9IjE1MCIgdmVyc2lvbj0iMS4xIiB2aWV3Qm94PSIxMjggNDIuNjY2NjY3OTM4MjMyNDIgNzY4IDkzOC42NjY2MjU5NzY1NjI1IiBjbGFzcz0iaWNvbiI+PHBhdGggZmlsbD0iIzAwMDAwMCIgZD0iTTI5OC42NjY2NjcgNDIuNjY2NjY3aDQyNi42NjY2NjZ2ODUuMzMzMzMzaDE3MC42NjY2Njd2ODUzLjMzMzMzM0gxMjhWMTI4aDE3MC42NjY2NjdWNDIuNjY2NjY3eiBtMCAxNzAuNjY2NjY2SDIxMy4zMzMzMzN2NjgyLjY2NjY2N2g1OTcuMzMzMzM0VjIxMy4zMzMzMzNoLTg1LjMzMzMzNHY4NS4zMzMzMzRIMjk4LjY2NjY2N1YyMTMuMzMzMzMzeiBtMzQxLjMzMzMzMy04NS4zMzMzMzNIMzg0djg1LjMzMzMzM2gyNTZWMTI4eiBtLTI1NiAzNDEuMzMzMzMzaDI1NnY4NS4zMzMzMzRIMzg0di04NS4zMzMzMzR6IG0wIDE3MC42NjY2NjdoMjU2djg1LjMzMzMzM0gzODR2LTg1LjMzMzMzM3oiLz48L3N2Zz4=;" vertex="1" parent="1">
          <mxGeometry x="130" y="180" width="35.24" height="43" as="geometry" />
        </mxCell>
        <mxCell id="tbTewXhnc4jtzLpSjDv9-9" value="query" style="text;html=1;align=center;verticalAlign=middle;resizable=0;points=[];autosize=1;strokeColor=none;fillColor=none;" parent="1" vertex="1">
          <mxGeometry x="121" y="220" width="50" height="30" as="geometry" />
        </mxCell>
      </root>
    </mxGraphModel>
  </diagram>
</mxfile>
